<?xml version="1.0" encoding="utf-8"?>
<!-- Generator: Adobe Illustrator 22.1.0, SVG Export Plug-In . SVG Version: 6.00 Build 0)  -->
<svg version="1.1" id="Calque_1" xmlns="http://www.w3.org/2000/svg" xmlns:xlink="http://www.w3.org/1999/xlink" x="0px" y="0px"
	 viewBox="0 0 1000 1000" enable-background="new 0 0 1000 1000" xml:space="preserve">
<title>logoCastres</title>
<path fill="#1362AB" d="M404.895,507.096c14.23,57.935,63.525,102.149,96.559,102.149s82.329-44.722,96.559-102.149
	c0.508-2.541,1.525-5.59,2.033-8.131c27.951-4.066,55.394-11.18,81.312-22.361c3.557-1.016,7.623-0.508,11.18,1.525
	c1.525,1.016,3.049,3.049,3.557,5.082c1.525,3.557,4.574,6.098,8.639,7.115l0,0c5.082,1.525,10.164-1.016,12.705-5.59
	c12.705-20.836,32.017-47.771,43.197-62.509l4.574-6.098l5.59-7.115l0,0c3.049-3.557,2.033-9.148-1.525-12.197c0,0,0,0-0.508-0.508
	l-16.262-11.18c-3.557-2.033-7.623-2.033-10.672,1.016l0,0c0,0-22.361,20.836-65.05,33.541
	c-17.279,5.082-35.066,9.148-53.361,12.197c7.115-15.754,16.262-30.492,27.443-43.705c2.541-3.049,4.066-6.607,4.066-10.164v-1.016
	c0-4.066-1.525-7.623-4.066-10.672c-12.705-14.738-22.869-31.509-30.492-49.296c19.312,3.557,38.115,7.623,55.394,12.705
	c42.689,13.213,63.525,33.033,63.525,33.541l0,0c3.049,2.541,7.115,3.049,10.672,0.508l16.262-11.18
	c4.066-2.541,5.082-8.131,2.033-11.689c0,0,0-0.508-0.508-0.508l0,0l-5.59-7.115l-4.574-6.098
	c-11.689-15.754-32.017-43.705-44.722-65.05c-1.525-3.049-5.082-4.066-8.131-3.557l-5.59,1.525c-2.541,0.508-5.082,2.541-5.59,5.59
	c-0.508,3.049-2.033,5.59-4.574,7.115c-2.541,2.033-6.098,2.541-9.656,1.525c-26.427-10.672-54.378-18.295-82.837-22.869l0,0
	c-13.213-58.952-64.034-105.198-97.575-105.198s-81.82,47.263-95.034,106.214l0,0l-11.689,2.541
	c-102.149,18.803-165.674,65.558-165.674,122.477s71.148,103.673,175.838,121.46C403.37,501.505,403.878,504.555,404.895,507.096z
	 M681.865,437.472c23.885-7.115,46.246-18.295,66.066-33.033l3.557,2.541l0,0l-4.574,6.098
	c-10.164,13.721-26.935,36.591-39.64,56.41c-1.525-1.525-3.049-3.049-4.574-4.066c-7.623-5.59-17.279-7.115-26.427-4.066
	l-1.016,0.508c-22.361,9.656-45.738,16.262-70.132,19.82c3.557-10.672,6.607-20.836,10.164-29.476
	C638.16,448.144,660.012,443.57,681.865,437.472L681.865,437.472z M637.651,378.012c-12.197,13.721-37.607,48.787-56.41,124.51
	c-12.705,51.837-56.41,88.935-79.788,88.935c-23.377,0-67.083-37.607-79.788-88.935l-0.508-1.525
	c7.623,1.016,15.246,2.033,22.869,2.541c13.721,45.23,34.05,70.132,57.427,70.132c21.853,0,40.656-20.836,54.378-60.476
	c12.705-36.082,19.82-84.362,19.82-135.182c0-22.361-1.525-45.23-4.574-67.591c10.164,1.016,19.82,2.541,29.476,3.557
	C614.782,350.061,629.012,369.373,637.651,378.012L637.651,378.012z M449.108,442.554c-5.59-43.705-5.59-87.411,0.508-131.116
	c18.803-3.049,37.607-4.066,56.919-4.066c15.246,0,31,0.508,47.263,2.033c3.049,22.869,5.082,45.738,5.082,69.116
	c0,21.344-1.016,42.689-4.066,63.525l-9.148,0.508c-16.771,1.525-33.033,2.033-47.771,2.033
	C481.125,444.587,465.371,444.079,449.108,442.554z M462.83,505.063c11.18,0.508,22.361,1.016,34.05,1.016
	c13.213,0,26.427-0.508,39.132-1.016h4.066c-10.672,32.525-24.902,51.328-38.623,51.328S473.502,537.08,462.83,505.063z
	 M676.783,291.618c8.639,2.541,17.787,1.016,24.902-4.066c2.033-1.525,3.557-3.049,5.082-5.082
	c12.705,19.82,28.968,42.689,39.132,56.41l4.574,6.098l0,0l-3.557,2.541c-19.82-14.738-41.673-25.918-65.05-32.525
	c-57.427-15.246-116.378-23.377-175.838-23.886c-17.787,0-35.066,1.016-52.853,3.049l6.098-28.968
	c15.246-1.525,31-2.033,46.246-2.033c68.099,0,121.969,9.148,169.231,28.459L676.783,291.618L676.783,291.618z M464.354,246.896
	c10.672-29.476,24.394-46.755,37.099-46.755c12.705,0,26.427,17.279,36.591,45.738c-10.164-0.508-20.836-0.508-32.017-0.508
	C489.765,245.88,478.584,245.88,464.354,246.896z M501.453,165.075c22.869,0,65.05,35.574,78.771,84.87
	c-7.623-1.016-15.246-1.525-22.869-2.033c-13.721-41.673-33.541-64.542-55.902-64.542c-22.361,0-40.656,20.836-54.378,60.476
	c-12.705,36.082-19.82,84.362-19.82,135.182c0,20.836,1.016,41.164,3.557,62.001c-12.197-2.033-23.885-4.066-35.066-6.607
	l2.033-1.016c-8.131-19.82-18.803-38.115-33.033-53.869l0.508-0.508c12.705-14.23,37.607-49.804,55.902-124.001
	C434.37,202.174,478.076,165.075,501.453,165.075L501.453,165.075z M353.058,366.324l-1.016,1.525
	c-2.541,3.049-4.066,6.607-4.066,10.672v0.508c0,4.066,1.525,8.131,4.574,11.18c10.164,11.689,18.295,24.394,24.902,38.115
	c-41.164-13.213-66.575-32.525-66.575-50.82c0-17.279,26.427-37.607,67.591-51.837h1.016
	C372.37,339.897,363.73,353.618,353.058,366.324z M243.794,377.504c0-47.263,59.46-88.935,151.953-105.706h0.508l-15.246,35.066
	l-7.623,2.033h-0.508c-50.312,17.279-79.28,42.181-79.28,68.099c0,24.394,22.869,46.246,64.034,62.509
	c38.115,14.738,87.919,22.869,139.756,22.869c15.246,0,32.017-0.508,49.296-2.033h4.066L544.65,488.8h-9.148
	c-12.705,1.016-25.41,1.016-38.115,1.016C355.091,489.309,243.794,440.013,243.794,377.504z"/>
<path fill="#1362AB" d="M500.437,791.181L500.437,791.181C895.31,581.802,858.72,177.272,858.72,177.272
	S650.865,130.518,500.437,11.598V11.09l0,0l0,0v0.508C350.009,130.518,142.154,177.272,142.154,177.272
	S105.563,581.802,500.437,791.181z M199.073,399.865c-20.836-65.05-31.509-133.149-31.509-201.248
	c54.378-14.23,207.347-60.984,332.365-152.969h0.508l0.508-0.508c125.018,92.493,277.987,138.739,332.365,153.477
	c0,68.607-10.672,136.198-31.509,201.248c-21.853,69.624-55.902,134.166-100.624,192.101
	c-54.886,69.624-122.985,127.051-200.74,169.231c-77.755-42.181-145.854-99.608-200.74-169.231
	C255.483,534.03,221.434,469.489,199.073,399.865z"/>
<path fill="#1362AB" d="M22.218,618.392l0.508,0.508l11.689-12.197l-0.508-1.016l-6.098-6.098c-3.049-4.066-5.082-9.148-6.607-14.23
	c-2.033-7.115-1.016-15.246,3.049-21.344c4.574-6.607,11.689-11.18,19.82-12.705c8.131-2.541,16.262-1.525,23.377,2.541
	c6.607,4.066,11.18,10.164,12.705,17.787c2.033,7.623,1.525,15.246-1.525,22.361l-0.508,1.016l16.262,5.59l0.508-0.508
	c1.525-3.049,3.049-6.098,3.557-9.656c1.525-8.131,1.016-16.262-1.016-23.885c-2.541-12.705-10.164-23.885-21.345-31
	c-11.689-7.115-25.918-8.639-39.132-4.574c-12.705,2.541-23.886,10.672-31,21.853c-6.098,10.672-7.623,23.377-4.066,35.574
	c2.033,8.131,6.098,15.754,11.18,22.361C16.12,613.31,19.169,616.359,22.218,618.392z"/>
<path fill="#1362AB" d="M116.236,629.064l-99.1,4.574l8.131,19.82l19.82-1.016l12.197,28.968l-14.738,13.721l8.639,20.328
	l73.181-67.083L116.236,629.064z M97.432,647.868l-26.427,21.853l-7.623-18.803L97.432,647.868z"/>
<path fill="#1362AB" d="M126.4,751.033c1.525-7.115,1.525-14.23,0-21.853c-1.016-5.082-1.525-10.164-1.525-15.754
	c0.508-2.033,1.525-3.557,3.049-4.066c2.033-1.016,5.082-1.016,7.115,0c3.049,1.525,5.59,4.066,7.115,6.607
	c3.557,5.59,4.574,12.705,3.557,18.803v1.016l17.279,1.525v-1.016c0.508-3.049,1.016-6.607,0.508-10.164
	c-0.508-7.115-3.049-14.23-6.607-20.836c-4.066-7.623-10.672-13.213-18.295-16.262c-7.623-2.541-15.754-1.525-22.361,2.541
	c-5.59,3.557-10.164,9.148-11.689,15.754c-1.525,6.607-1.525,13.721,0,20.328c1.016,5.082,1.525,10.672,1.016,15.754
	c-0.508,2.033-2.033,4.066-3.557,5.082c-2.541,1.525-5.59,2.033-8.131,0.508c-3.049-1.525-6.098-4.066-7.623-7.115
	c-3.557-6.607-5.082-14.23-4.574-21.344v-1.525l-17.279-0.508v0.508c-1.016,3.557-1.016,7.115-0.508,10.672
	c0.508,8.131,3.049,15.754,7.115,22.361c4.066,8.131,11.689,14.23,19.82,16.771c2.541,1.016,5.59,1.525,8.639,1.525
	c5.082,0,10.672-1.525,15.246-4.574C120.301,763.738,124.875,757.64,126.4,751.033z"/>
<polygon fill="#1362AB" points="203.646,801.345 217.368,790.165 171.122,735.279 157.908,746.459 173.663,765.771 115.727,814.558 
	129.449,830.821 187.892,782.033 "/>
<path fill="#1362AB" d="M237.696,862.838c5.59-1.016,10.672-4.574,13.721-9.148c4.574-5.59,6.607-12.705,6.098-19.312
	c-0.508-5.59-3.049-10.672-6.607-15.246c-4.066-4.066-8.131-8.131-12.705-11.689l-18.803-15.246l-58.952,72.165l16.262,13.213
	l22.869-27.951l1.016,1.016c2.541,1.525,4.066,3.557,5.59,6.098c1.016,4.066,0.508,8.131-1.016,11.689l-7.115,26.935l17.787,14.23
	l6.607-24.902c1.525-4.574,2.541-8.639,3.049-13.213c0.508-3.557,0-7.115-1.525-10.164
	C228.548,863.346,233.122,863.854,237.696,862.838z M228.548,821.673c2.541,2.033,4.574,3.557,6.607,6.098
	c1.525,1.525,2.541,3.557,2.541,5.59c0,3.049-1.016,5.59-3.049,7.623c-2.033,2.541-5.082,4.066-8.131,4.574
	c-4.066,0-8.131-2.033-11.18-4.574l-5.082-4.066l14.738-17.787L228.548,821.673z"/>
<polygon fill="#1362AB" points="300.205,911.117 308.336,895.871 278.352,880.116 287.5,862.838 319.517,879.608 327.648,864.362 
	276.828,837.427 233.122,920.264 284.959,947.199 293.09,931.445 260.057,914.166 270.221,895.362 "/>
<path fill="#1362AB" d="M382.534,884.69c-5.59-5.082-11.689-8.639-18.803-10.672c-8.131-3.049-16.771-2.541-24.902,0.508
	c-7.115,3.049-12.705,9.148-15.246,16.771c-2.033,6.607-1.525,13.213,2.033,19.312c3.557,5.59,8.131,10.672,13.721,15.246
	c4.574,3.049,8.131,7.115,11.689,11.18c1.016,2.033,1.016,4.066,0.508,6.098c-1.016,3.049-3.049,5.082-5.59,6.098
	c-3.557,1.016-7.115,1.016-10.672-0.508c-7.115-2.541-13.213-7.115-17.787-13.213l-0.508-0.508l-13.213,11.18l0.508,0.508
	c1.525,3.049,4.066,6.098,6.607,8.131c5.59,5.59,12.705,9.148,20.328,11.689c4.066,1.525,8.639,2.033,13.213,2.033
	c4.574,0,9.148-1.016,13.213-2.541c7.623-3.557,13.213-10.164,15.246-17.787c2.033-6.607,1.525-13.721-1.525-19.82
	c-4.066-6.098-8.639-11.689-14.23-16.262c-4.066-3.049-7.623-6.607-11.18-10.672c-1.016-1.525-1.016-3.557-0.508-5.082
	c0.508-2.541,2.541-4.574,5.082-5.082c3.049-1.016,6.607-1.016,10.164,0.508c6.098,2.033,11.689,6.098,15.246,11.689l0.508,1.016
	l13.721-10.672l-0.508-0.508C387.616,889.264,385.075,886.723,382.534,884.69z"/>
<path fill="#1362AB" d="M468.42,891.297c-12.197-1.016-24.394,3.049-33.541,11.689c-9.148,9.148-14.23,21.344-14.23,34.05
	c-1.016,13.213,2.541,25.918,10.672,36.591c8.131,9.656,19.82,15.246,32.525,15.246h3.049c11.18,0.508,22.361-4.066,30.492-12.197
	c9.148-9.656,14.23-21.853,14.738-35.066c1.016-12.705-2.541-25.41-10.672-35.066C492.814,896.887,480.617,891.805,468.42,891.297z
	 M489.765,940.593c0,7.623-2.033,14.738-6.098,20.836c-4.066,6.607-11.689,10.164-18.803,9.148c-6.607,0-13.213-3.557-17.279-9.148
	c-4.574-6.607-6.607-14.23-6.098-22.361c0-8.131,2.541-16.262,7.623-22.361c3.557-5.082,9.656-8.131,15.754-7.623h1.525
	c7.115,0,13.213,3.557,17.279,9.148C488.748,924.838,490.781,932.969,489.765,940.593L489.765,940.593z"/>
<polygon fill="#1362AB" points="550.241,967.019 541.093,891.805 519.749,894.854 531.437,987.347 587.848,980.232 585.307,962.445 
	"/>
<polygon fill="#1362AB" points="619.356,875.034 611.733,917.215 583.274,885.198 562.438,891.297 605.635,937.543 615.799,973.117 
	635.619,967.527 625.455,931.953 638.668,869.444 "/>
<polygon fill="#1362AB" points="700.16,835.395 714.39,901.461 662.553,857.247 643.242,868.428 682.882,953.298 699.144,943.642 
	672.209,889.264 720.489,931.445 735.735,922.805 722.013,860.297 756.571,910.1 774.358,899.936 719.472,823.706 "/>
<path fill="#1362AB" d="M791.129,838.952c4.066-3.557,7.623-7.623,11.18-12.197c3.049-4.574,4.574-10.164,5.082-15.754
	c0-8.131-3.049-15.754-8.639-21.345c-5.082-5.59-12.197-9.148-19.312-9.656c-5.082,0-10.672,1.525-15.246,4.066
	c-5.082,3.557-9.656,7.115-14.23,11.689l-19.312,18.295l64.034,68.099l15.246-14.23l-22.869-24.394L791.129,838.952z
	 M787.571,814.05c0,3.049-3.049,7.115-8.639,12.705l-4.066,4.066l-17.279-18.295l5.082-4.574c5.59-5.082,9.656-7.623,12.197-7.623
	c3.557,0.508,6.607,2.033,8.639,4.574l0,0C786.047,806.935,787.571,810.493,787.571,814.05z"/>
<polygon fill="#1362AB" points="797.735,744.426 783.506,760.689 854.654,820.148 855.162,820.657 868.884,804.394 798.244,744.935 
	"/>
<path fill="#1362AB" d="M931.901,718.508c-1.525,3.557-3.557,6.607-5.59,10.164c-3.049,5.082-7.115,9.148-11.689,12.197
	c2.541-6.098,3.049-13.213,1.525-19.82c-3.049-13.721-11.689-25.41-23.377-32.525c-10.164-7.623-23.377-10.672-36.082-8.639
	c-24.902,5.59-41.164,29.984-36.591,54.886c3.049,12.197,11.18,22.869,21.853,29.476c8.639,6.098,19.312,9.656,29.984,10.164
	c1.525,0,3.049,0,4.574,0c9.148-0.508,17.787-4.574,24.394-11.18c7.115-0.508,14.23-2.541,20.836-6.098
	c6.098-4.066,11.18-9.148,15.246-15.754c3.557-5.082,6.098-11.18,8.639-16.771l0.508-1.016L932.409,718L931.901,718.508z
	 M893.786,743.41c-3.557,5.59-9.656,9.148-16.262,10.164c-8.131,0.508-15.754-1.525-22.361-6.098
	c-7.115-4.066-12.197-10.672-15.754-17.787c-2.541-6.098-1.525-13.213,2.033-18.803c3.557-6.098,10.164-9.656,16.771-10.164h2.541
	c7.115,0,13.721,2.541,19.312,6.607c6.607,4.066,11.689,9.148,15.246,15.754C898.868,729.18,898.359,737.311,893.786,743.41
	L893.786,743.41z"/>
<path fill="#1362AB" d="M952.737,623.474c-5.082-4.066-10.672-7.115-16.771-10.164l-47.263-22.869l-9.148,18.803l44.722,21.345
	c4.574,2.033,9.148,4.574,13.213,7.115c2.033,1.525,4.066,3.557,5.082,6.098c2.541,8.639-1.525,17.787-10.164,21.344
	c-5.082,1.016-10.672,0-15.246-2.541l-52.345-25.41l-9.148,19.312l46.755,22.869c5.59,3.049,11.18,5.082,17.279,7.115
	c2.541,0.508,5.082,1.016,7.623,1.016c3.049,0,6.098-0.508,9.148-1.525c19.82-8.131,29.984-29.984,24.394-50.312
	C959.344,631.097,956.803,627.031,952.737,623.474z"/>
<polygon fill="#1362AB" points="983.229,550.801 971.032,585.867 950.704,578.752 961.885,546.736 945.622,540.637 934.442,572.654 
	916.147,566.555 928.343,532.506 911.573,526.407 892.769,580.277 980.688,611.785 1000,556.9 "/>
</svg>
