<?xml version="1.0" encoding="UTF-8" standalone="no"?>
<svg
   xmlns:dc="http://purl.org/dc/elements/1.1/"
   xmlns:cc="http://creativecommons.org/ns#"
   xmlns:rdf="http://www.w3.org/1999/02/22-rdf-syntax-ns#"
   xmlns:svg="http://www.w3.org/2000/svg"
   xmlns="http://www.w3.org/2000/svg"
   xmlns:sodipodi="http://sodipodi.sourceforge.net/DTD/sodipodi-0.dtd"
   xmlns:inkscape="http://www.inkscape.org/namespaces/inkscape"
   width="128.8349mm"
   height="158.75mm"
   viewBox="0 0 128.8349 158.75"
   version="1.1"
   id="svg8"
   inkscape:version="1.0 (4035a4f, 2020-05-01)"
   sodipodi:docname="Logo US Montalbanaise - 2017.svg">
  <defs
     id="defs2">
    <style
       type="text/css"
       id="style1864">
   <![CDATA[
    .fil3 {fill:#1C6B36;fill-rule:nonzero}
    .fil2 {fill:#208845;fill-rule:nonzero}
    .fil1 {fill:#48AD61;fill-rule:nonzero}
    .fil0 {fill:black;fill-rule:nonzero}
    .fil4 {fill:white;fill-rule:nonzero}
   ]]>
  </style>
  </defs>
  <sodipodi:namedview
     id="base"
     pagecolor="#ffffff"
     bordercolor="#666666"
     borderopacity="1.0"
     inkscape:pageopacity="0.0"
     inkscape:pageshadow="2"
     inkscape:zoom="0.7"
     inkscape:cx="86.323754"
     inkscape:cy="152.38115"
     inkscape:document-units="px"
     inkscape:current-layer="layer1"
     inkscape:document-rotation="0"
     showgrid="false"
     inkscape:window-width="1434"
     inkscape:window-height="756"
     inkscape:window-x="0"
     inkscape:window-y="25"
     inkscape:window-maximized="0" />
  <metadata
     id="metadata5">
    <rdf:RDF>
      <cc:Work
         rdf:about="">
        <dc:format>image/svg+xml</dc:format>
        <dc:type
           rdf:resource="http://purl.org/dc/dcmitype/StillImage" />
        <dc:title />
      </cc:Work>
    </rdf:RDF>
  </metadata>
  <g
     inkscape:label="Calque 1"
     inkscape:groupmode="layer"
     id="layer1"
     transform="translate(4.5059522,-25.148466)">
    <g
       transform="matrix(0.9980215,0,0,0.9980215,-0.00891503,0.04975624)"
       id="g2258">
      <path
         id="path2196"
         style="color:#000000;font-style:normal;font-variant:normal;font-weight:normal;font-stretch:normal;font-size:medium;line-height:normal;font-family:sans-serif;font-variant-ligatures:normal;font-variant-position:normal;font-variant-caps:normal;font-variant-numeric:normal;font-variant-alternates:normal;font-variant-east-asian:normal;font-feature-settings:normal;font-variation-settings:normal;text-indent:0;text-align:start;text-decoration:none;text-decoration-line:none;text-decoration-style:solid;text-decoration-color:#000000;letter-spacing:normal;word-spacing:normal;text-transform:none;writing-mode:lr-tb;direction:ltr;text-orientation:mixed;dominant-baseline:auto;baseline-shift:baseline;text-anchor:start;white-space:normal;shape-padding:0;shape-margin:0;inline-size:0;clip-rule:nonzero;display:inline;overflow:visible;visibility:visible;isolation:auto;mix-blend-mode:normal;color-interpolation:sRGB;color-interpolation-filters:linearRGB;solid-color:#000000;solid-opacity:1;vector-effect:none;fill:#211e1f;fill-opacity:1;fill-rule:nonzero;stroke:none;stroke-width:3;stroke-linecap:butt;stroke-linejoin:miter;stroke-miterlimit:4;stroke-dasharray:none;stroke-dashoffset:0;stroke-opacity:1;color-rendering:auto;image-rendering:auto;shape-rendering:auto;text-rendering:auto;enable-background:accumulate;stop-color:#000000"
         d="M 0.15820312,0.68359375 3.2734375,256.5332 v 0.006 C 5.013194,359.75083 43.129088,435.40528 91.775391,490.54492 140.42169,545.6846 200.22466,580.35287 244.10938,601.87305 287.99409,580.35287 347.79704,545.6846 396.44336,490.54492 c 48.6463,-55.13964 86.76025,-130.79409 88.5,-234.00586 v -0.006 L 488.05859,0.68359375 Z"
         transform="matrix(0.26458334,0,0,0.26458334,-4.5478101,24.967598)"
         sodipodi:nodetypes="cccscssccc" />
      <path
         id="path2190"
         style="fill:#ffffff;stroke:none;stroke-width:0.999999px;stroke-linecap:butt;stroke-linejoin:miter;stroke-opacity:1"
         d="M 1.6777344,2.1835938 4.7695312,256.51367 C 8.2370307,462.22442 156.52702,557.57876 244.10938,600.52734 331.69173,557.57876 479.97974,462.22442 483.44727,256.51367 L 486.53906,2.1835938 Z"
         sodipodi:nodetypes="cccccc"
         transform="matrix(0.26458334,0,0,0.26458334,-4.5478101,24.967598)" />
      <path
         id="path2188"
         style="fill:#211e1f;fill-opacity:1;stroke:none;stroke-width:0.999999px;stroke-linecap:butt;stroke-linejoin:miter;stroke-opacity:1"
         d="M 17.677734,18.183594 20.029297,221.48047 C 18.087887,463.34534 174.37971,543.19136 244.10938,580.52734 313.83905,543.19136 470.12893,463.34534 468.1875,221.48047 l 2.35156,-203.296876 z"
         sodipodi:nodetypes="cccccc"
         transform="matrix(0.26458334,0,0,0.26458334,-4.5478101,24.967598)" />
    </g>
    <g
       transform="matrix(0.9980215,0,0,0.9980215,-0.00891503,0.04975624)"
       style="fill:#ffffff"
       id="g2220">
      <path
         id="path2177"
         style="font-style:normal;font-variant:normal;font-weight:normal;font-stretch:normal;font-size:10.5833px;line-height:1.25;font-family:'Times New Roman';-inkscape-font-specification:'Times New Roman, ';white-space:pre;fill:#ffffff;stroke-width:2.36329"
         d="m 52.478092,152.79471 3.541604,5.3186 q 1.472626,2.20589 2.178512,2.79411 0.718057,0.57598 1.813397,0.63726 v 0.45342 h -7.083204 v -0.45342 q 0.705885,-0.0119 1.046659,-0.14703 0.255579,-0.11027 0.413795,-0.33089 0.170394,-0.23288 0.170394,-0.46568 0,-0.28185 -0.109537,-0.56373 -0.08519,-0.20845 -0.669374,-1.07842 l -2.799208,-4.26467 -3.45641,4.46074 q -0.54767,0.71078 -0.657203,0.95589 -0.109537,0.23288 -0.109537,0.49019 0,0.39216 0.328603,0.64952 0.328602,0.25735 1.253555,0.2941 v 0.45343 h -5.853989 v -0.45343 q 0.620694,-0.0612 1.071,-0.25735 0.754569,-0.31863 1.436114,-0.85783 0.681546,-0.53922 1.557818,-1.6544 l 3.894548,-4.95098 -3.249514,-4.79164 q -1.326579,-1.94851 -2.251532,-2.54899 -0.924956,-0.61276 -2.129831,-0.64952 v -0.45342 h 7.630877 v 0.45342 q -0.973636,0.0368 -1.33875,0.31863 -0.352943,0.28187 -0.352943,0.625 0,0.45343 0.584181,1.32352 l 2.531455,3.81125 2.93308,-3.73772 q 0.511161,-0.66175 0.620694,-0.90687 0.121713,-0.24509 0.121713,-0.50244 0,-0.25735 -0.146042,-0.45342 -0.182546,-0.25735 -0.462478,-0.35539 -0.279919,-0.11027 -1.156192,-0.12261 v -0.45342 h 5.853989 v 0.45342 q -0.693716,0.0368 -1.131852,0.22055 -0.657205,0.28185 -1.204875,0.75979 -0.547672,0.47795 -1.545649,1.76471 z" />
      <path
         id="path2179"
         style="font-style:normal;font-variant:normal;font-weight:normal;font-stretch:normal;font-size:10.5833px;line-height:1.25;font-family:'Times New Roman';-inkscape-font-specification:'Times New Roman, ';white-space:pre;fill:#ffffff;stroke-width:2.36329"
         d="m 78.011713,145.38054 v 0.45343 q -0.876273,0.15936 -1.326579,0.56372 -0.645034,0.6005 -1.144023,1.83824 l -5.756626,14.14208 h -0.450309 l -6.182592,-14.32592 q -0.474647,-1.10292 -0.669374,-1.34803 -0.304262,-0.37989 -0.754569,-0.58822 -0.438137,-0.22055 -1.192706,-0.28187 v -0.45343 h 6.742436 v 0.45343 q -1.144023,0.11027 -1.484797,0.39217 -0.340772,0.28185 -0.340772,0.72303 0,0.61274 0.559839,1.91176 l 4.19881,9.74259 3.894545,-9.62006 q 0.572013,-1.42155 0.572013,-1.97303 0,-0.35539 -0.352945,-0.67402 -0.352943,-0.33087 -1.192704,-0.46568 -0.06086,-0.0119 -0.206899,-0.0368 v -0.45343 z" />
    </g>
    <g
       transform="matrix(0.9980215,0,0,0.9980215,-0.00891503,0.04975624)"
       id="g2253">
      <path
         id="path1871"
         style="clip-rule:evenodd;fill:#1bad86;fill-opacity:1;stroke:none;stroke-width:0.500001;stroke-miterlimit:4;stroke-dasharray:none;image-rendering:optimizeQuality;shape-rendering:geometricPrecision;text-rendering:geometricPrecision"
         d="m 186.48828,175.42188 -57.80664,2.65039 -0.75781,12.5664 c 6.83643,1.53858 13.53648,5.92263 13.6875,13.63281 -0.45648,19.69351 -2.6356,31.60855 -4.36328,45.16797 -5.15419,40.45165 -13.54444,65.5376 -19.95508,93.16016 -5.53038,13.3494 -11.04089,52.30543 -35.718751,47.29101 l 0.49414,13.00782 92.470701,6.68945 0.25391,-15.35547 c -7.97408,-0.26116 -13.70728,-0.69745 -16.80469,-2.06836 -6.71463,-1.67202 -11.53757,-21.2995 -10.875,-25.98437 2.85387,-36.99092 10.39333,-64.68731 27.06641,-166.71875 l 69.92969,186.84375 69.92773,-186.84375 c 16.67308,102.03144 24.21253,129.72783 27.06641,166.71875 0.66257,4.68487 -4.15842,24.31235 -10.87305,25.98437 -3.09741,1.37091 -8.83061,1.8072 -16.80469,2.06836 l 0.25195,15.35547 92.47266,-6.68945 0.49414,-13.00782 c -24.67786,5.01442 -30.18837,-33.94161 -35.71875,-47.29101 -6.41064,-27.62256 -14.80284,-52.70851 -19.95703,-93.16016 -1.72769,-13.55942 -3.90485,-25.47446 -4.36133,-45.16797 0.15102,-7.71018 6.84911,-12.09423 13.68555,-13.63281 l -0.75781,-12.5664 -57.80664,-2.65039 -57.61914,155.03906 z"
         transform="matrix(0.26458334,0,0,0.26458334,-4.5478101,24.967598)" />
      <path
         style="clip-rule:evenodd;fill:#00945c;fill-opacity:1;stroke:none;stroke-width:0.134793;stroke-miterlimit:4;stroke-dasharray:none;image-rendering:optimizeQuality;shape-rendering:geometricPrecision;text-rendering:geometricPrecision"
         id="path1873"
         d="M 101.62797,95.607368 99.357291,83.113756 h -5.955302 c 0.70811,4.218447 -0.518255,5.269992 -10.36355,2.253438 -8.156977,-1.865355 -16.990287,-2.91468 -27.941952,-2.91468 -7.02165,0 -13.676486,0.449067 -19.859725,1.347201 -6.2007,0.898134 -11.178733,2.619055 -15.108759,4.259876 -3.772817,1.640821 -5.816434,3.437088 -5.973633,5.37153 0,3.661622 3.091614,5.826855 9.362183,7.536759 6.340448,1.79629 14.04329,3.58629 22.968811,4.27716 l 26.357361,2.68815 c 3.378741,0.81153 14.465016,0.52005 14.497425,4.69793 0,1.79627 -2.113475,2.61429 -6.270568,3.73697 -4.226962,1.0363 -9.2677,1.16835 -15.4684,1.16835 -8.226857,-0.0691 -16.478328,-0.0832 -24.565448,-1.94859 -7.999788,-1.93444 -13.601736,-4.75888 -18.352701,-8.71412 l -8.528663,0.45921 1.080981,13.59083 h 5.485651 c 0.05641,-4.92758 1.491515,-6.05833 10.492649,-4.00198 11.372614,2.8123 23.080231,4.12393 34.555901,4.12393 7.336048,0 13.57082,-1.01602 19.701653,-1.91415 6.200705,-0.89813 11.178736,-1.56071 14.811825,-3.13245 3.77282,-1.57173 5.88631,-3.21255 6.27057,-5.07791 0.1572,-0.29362 0.1572,-0.74268 0.1572,-1.3472 0,-3.21256 -2.72482,-5.68241 -8.15698,-7.39233 C 93.034319,100.3854 87.060687,99.193644 80.580513,98.589135 73.698599,97.915526 65.541612,97.24193 56.109559,96.723776 46.293231,96.119264 40.319598,95.002855 38.275981,94.398341 34.503154,93.362034 32.230583,92.183668 32.16261,90.805808 c -0.0736,-1.491857 2.340544,-2.165234 6.567505,-3.201542 7.029994,-0.967222 9.519393,-1.379539 15.475564,-1.379539 4.681097,0 9.449524,0.256872 14.497425,1.01683 4.750966,0.673601 9.449525,1.336189 13.973422,2.907921 4.45402,1.709909 6.550581,1.746335 10.233789,5.917094 z"
         class="fil2"
         sodipodi:nodetypes="ccccscccccccccccccccscccsccccscscccc" />
      <path
         id="path1875"
         style="clip-rule:evenodd;fill:#007851;fill-opacity:1;stroke:none;stroke-width:0.500001;stroke-miterlimit:4;stroke-dasharray:none;image-rendering:optimizeQuality;shape-rendering:geometricPrecision;text-rendering:geometricPrecision"
         d="m 178.95508,143.31445 v 13.84961 c 13.54434,0.43893 16.03447,2.47842 16.23047,14.24219 l -0.12305,208.57422 c 0,9.59603 1.49882,24.69718 13.19922,32.72656 8.71173,5.9404 18.99652,7.28974 35.84766,8.00781 16.85113,-0.71807 27.13592,-2.06741 35.84765,-8.00781 11.7004,-8.02938 13.19727,-23.13053 13.19727,-32.72656 l -0.1211,-208.57422 c 0.196,-11.76377 2.68417,-13.80326 16.22852,-14.24219 v -13.84961 h -55.87891 v 12.45703 c 9.16906,0.42517 12.86572,11.00028 13.48828,20.29883 l 6.42579,201.03711 c 0,8.32294 -2.3769,16.89532 -8.99415,22.58203 -5.63747,4.78889 -12.44722,5.39117 -20.19335,5.61719 -7.74614,-0.22602 -14.55785,-0.8283 -20.19532,-5.61719 -6.61724,-5.68671 -8.99218,-14.25909 -8.99218,-22.58203 l 6.42382,-201.03711 c 0.62256,-9.29855 4.32118,-19.87366 13.49024,-20.29883 v -12.45703 z"
         transform="matrix(0.26458334,0,0,0.26458334,-4.5478101,24.967598)" />
    </g>
    <g
       transform="matrix(0.9980215,0,0,0.9980215,-0.66840614,0.04975624)"
       style="fill:#ffffff"
       id="g2248">
      <path
         id="path2025"
         style="font-style:normal;font-variant:normal;font-weight:normal;font-stretch:normal;font-size:10.5833px;line-height:0.9;font-family:Rockwell;-inkscape-font-specification:Rockwell;white-space:pre;fill:#ffffff;stroke-width:1.24572"
         d="m 6.8964436,35.300231 v 5.201608 q 0,1.374904 0.4711255,2.011559 0.4772444,0.636656 1.395022,0.636656 0.9300143,0 1.4133779,-0.629882 0.489481,-0.629883 0.489481,-2.004787 V 35.300231 H 9.5885902 v -1.273309 h 3.6099258 v 1.273309 h -1.150282 v 5.357385 q 0,1.82869 -0.838236,2.790446 -0.832119,0.954983 -2.4474069,0.954983 -1.6275259,0 -2.4474072,-0.94821 Q 5.5014215,42.499853 5.5014215,40.569568 V 35.300231 H 4.3633769 v -1.273309 h 3.622162 v 1.273309 z" />
      <path
         id="path2027"
         style="font-style:normal;font-variant:normal;font-weight:normal;font-stretch:normal;font-size:10.5833px;line-height:0.9;font-family:Rockwell;-inkscape-font-specification:Rockwell;white-space:pre;fill:#ffffff;stroke-width:1.24572"
         d="m 20.944559,35.300231 h -1.315482 v -1.273309 h 3.781244 v 1.273309 h -1.352192 v 9.041857 h -1.431734 l -4.423687,-8.723529 v 7.341852 h 1.321599 v 1.273311 h -3.775124 v -1.273311 h 1.31548 v -7.66018 h -1.31548 V 34.026922 H 16.8941 l 4.050459,7.931097 z" />
      <path
         id="path2029"
         style="font-style:normal;font-variant:normal;font-weight:normal;font-stretch:normal;font-size:10.5833px;line-height:0.9;font-family:Rockwell;-inkscape-font-specification:Rockwell;white-space:pre;fill:#ffffff;stroke-width:1.24572"
         d="m 26.449165,35.300231 v 7.66018 H 27.4526 v 1.273311 h -3.395776 v -1.273311 h 0.997319 v -7.66018 H 24.056824 V 34.026922 H 27.4526 v 1.273309 z" />
      <path
         id="path2031"
         style="font-style:normal;font-variant:normal;font-weight:normal;font-stretch:normal;font-size:10.5833px;line-height:0.9;font-family:Rockwell;-inkscape-font-specification:Rockwell;white-space:pre;fill:#ffffff;stroke-width:1.24572"
         d="m 37.840303,39.099843 q 0,1.557773 -0.624089,2.770127 -0.61797,1.212355 -1.713185,1.876101 -1.095214,0.656974 -2.490236,0.656974 -1.376667,0 -2.447407,-0.684065 -1.07074,-0.690839 -1.670355,-1.903194 -0.593496,-1.219125 -0.593496,-2.743034 0,-1.510363 0.605733,-2.695625 0.611851,-1.185263 1.682592,-1.849009 1.070741,-0.67052 2.435169,-0.67052 1.419497,0 2.514711,0.690839 1.095215,0.684065 1.69483,1.8761 0.605733,1.192036 0.605733,2.675306 z m -4.772443,3.941844 q 0.94837,0 1.694828,-0.548607 0.74646,-0.548608 1.150282,-1.45618 0.409941,-0.907572 0.409941,-1.937057 0,-1.049803 -0.434415,-1.94383 -0.428296,-0.900799 -1.186993,-1.415542 -0.758696,-0.521515 -1.713184,-0.521515 -0.936133,0 -1.658118,0.50797 -0.721985,0.501196 -1.119689,1.388449 -0.391585,0.887255 -0.391585,1.970923 0,1.151397 0.391585,2.052197 0.397704,0.900798 1.138045,1.401995 0.74034,0.501197 1.719303,0.501197 z" />
      <path
         id="path2033"
         style="font-style:normal;font-variant:normal;font-weight:normal;font-stretch:normal;font-size:10.5833px;line-height:0.9;font-family:Rockwell;-inkscape-font-specification:Rockwell;white-space:pre;fill:#ffffff;stroke-width:1.24572"
         d="m 45.623683,35.300231 h -1.315481 v -1.273309 h 3.781243 v 1.273309 h -1.352192 v 9.041857 H 45.30552 l -4.423688,-8.723529 v 7.341852 h 1.3216 v 1.273311 h -3.775125 v -1.273311 h 1.315481 v -7.66018 h -1.315481 v -1.273309 h 3.144918 l 4.050458,7.931097 z" />
      <path
         id="path2035"
         style="font-style:normal;font-variant:normal;font-weight:normal;font-stretch:normal;font-size:10.5833px;line-height:0.9;font-family:Rockwell;-inkscape-font-specification:Rockwell;white-space:pre;fill:#ffffff;stroke-width:1.24572"
         d="m 59.077958,34.663577 v -0.697612 h 1.125807 v 3.095227 h -1.125807 v -0.704384 q -0.715867,-1.192035 -1.957926,-1.192035 -0.758696,0 -1.162518,0.338646 -0.403822,0.338647 -0.403822,0.975302 0,0.609563 0.379348,0.92789 0.385467,0.318328 1.174755,0.541835 l 1.082978,0.318327 q 1.034029,0.304782 1.584696,0.805979 0.556785,0.501196 0.721985,1.063349 0.171318,0.562153 0.171318,1.252992 0,1.388449 -0.78317,2.201201 -0.78317,0.812751 -2.098651,0.812751 -1.254296,0 -2.282207,-1.015939 v 0.846616 h -1.150281 v -3.718337 h 1.150281 v 0.900799 q 0.826,1.679686 2.153718,1.679686 0.777052,0 1.205348,-0.44024 0.428296,-0.447013 0.428296,-1.252992 0,-1.097213 -1.395022,-1.523908 l -1.150281,-0.358965 q -1.242059,-0.392829 -1.835555,-1.063349 -0.593496,-0.670521 -0.593496,-1.767735 0,-1.347812 0.715866,-2.086061 0.721985,-0.745022 1.988518,-0.745022 1.101333,0 2.055822,0.805979 z" />
      <path
         id="path2037"
         style="font-style:normal;font-variant:normal;font-weight:normal;font-stretch:normal;font-size:10.5833px;line-height:0.9;font-family:Rockwell;-inkscape-font-specification:Rockwell;white-space:pre;fill:#ffffff;stroke-width:1.24572"
         d="m 68.500479,37.176332 q 0,1.395223 -0.777052,2.262157 -0.777051,0.866936 -2.630962,0.880481 h -1.211466 v 2.641441 h 1.199229 v 1.273311 h -3.744533 v -1.273311 h 1.150282 v -7.66018 h -1.150282 v -1.273309 h 3.432489 q 1.388903,0 2.202665,0.331872 0.819882,0.331874 1.174756,1.015939 0.354874,0.677293 0.354874,1.801599 z m -1.413378,-0.03387 q 0,-0.954982 -0.507837,-1.395223 -0.507836,-0.447014 -1.737658,-0.447014 h -0.960607 v 3.786067 h 0.86271 q 0.850474,0 1.358311,-0.169324 0.507837,-0.176095 0.74646,-0.596017 0.238621,-0.426694 0.238621,-1.178489 z" />
      <path
         id="path2039"
         style="font-style:normal;font-variant:normal;font-weight:normal;font-stretch:normal;font-size:10.5833px;line-height:0.9;font-family:Rockwell;-inkscape-font-specification:Rockwell;white-space:pre;fill:#ffffff;stroke-width:1.24572"
         d="m 79.018211,39.099843 q 0,1.557773 -0.624089,2.770127 -0.61797,1.212355 -1.713184,1.876101 -1.095216,0.656974 -2.490238,0.656974 -1.376666,0 -2.447406,-0.684065 -1.070741,-0.690839 -1.670355,-1.903194 -0.593496,-1.219125 -0.593496,-2.743034 0,-1.510363 0.605733,-2.695625 0.611852,-1.185263 1.682592,-1.849009 1.07074,-0.67052 2.43517,-0.67052 1.419495,0 2.51471,0.690839 1.095215,0.684065 1.69483,1.8761 0.605733,1.192036 0.605733,2.675306 z m -4.772444,3.941844 q 0.94837,0 1.69483,-0.548607 0.746458,-0.548608 1.150281,-1.45618 0.409941,-0.907572 0.409941,-1.937057 0,-1.049803 -0.434415,-1.94383 -0.428297,-0.900799 -1.186993,-1.415542 -0.758695,-0.521515 -1.713184,-0.521515 -0.936134,0 -1.658119,0.50797 -0.721985,0.501196 -1.119689,1.388449 -0.391585,0.887255 -0.391585,1.970923 0,1.151397 0.391585,2.052197 0.397704,0.900798 1.138045,1.401995 0.740341,0.501197 1.719303,0.501197 z" />
      <path
         id="path2041"
         style="font-style:normal;font-variant:normal;font-weight:normal;font-stretch:normal;font-size:10.5833px;line-height:0.9;font-family:Rockwell;-inkscape-font-specification:Rockwell;white-space:pre;fill:#ffffff;stroke-width:1.24572"
         d="m 86.9784,36.702227 q 0,0.982075 -0.501718,1.652594 -0.501719,0.663748 -1.401141,0.914346 l 1.627526,3.691244 h 1.125806 v 1.273311 h -2.068059 l -2.037466,-4.754595 h -1.291007 v 3.481284 h 1.174756 v 1.273311 h -3.817956 v -1.273311 h 1.248178 v -7.66018 h -1.248178 v -1.273309 h 3.830193 q 1.780488,0 2.569777,0.643427 0.789289,0.643429 0.789289,2.031878 z m -1.437851,-0.02709 q 0,-0.711158 -0.403823,-1.043031 -0.403822,-0.331874 -1.27877,-0.331874 h -1.425615 v 2.898813 h 1.339955 q 0.899423,0 1.333837,-0.345419 0.434416,-0.345419 0.434416,-1.178489 z" />
      <path
         id="path2122"
         style="font-style:normal;font-variant:normal;font-weight:normal;font-stretch:normal;font-size:10.5833px;line-height:0.9;font-family:Rockwell;-inkscape-font-specification:Rockwell;white-space:pre;fill:#ffffff;stroke-width:4.70823"
         d="m 349.24414,34.240234 v 8.111328 h 4.30078 v -3.298828 h 7.14649 v 28.951172 h -4.43946 v 4.8125 h 14.24414 v -4.8125 h -4.53125 V 39.052734 h 7.19141 v 3.298828 h 4.30078 v -8.111328 z"
         transform="matrix(0.26458334,0,0,0.26458334,-4.5478101,24.967598)" />
      <path
         id="path2045"
         style="font-style:normal;font-variant:normal;font-weight:normal;font-stretch:normal;font-size:10.5833px;line-height:0.9;font-family:Rockwell;-inkscape-font-specification:Rockwell;white-space:pre;fill:#ffffff;stroke-width:1.24572"
         d="m 98.004137,35.300231 v 7.66018 h 1.003437 v 1.273311 h -3.395777 v -1.273311 h 0.997318 v -7.66018 h -0.997318 v -1.273309 h 3.395777 v 1.273309 z" />
      <path
         id="path2047"
         style="font-style:normal;font-variant:normal;font-weight:normal;font-stretch:normal;font-size:10.5833px;line-height:0.9;font-family:Rockwell;-inkscape-font-specification:Rockwell;white-space:pre;fill:#ffffff;stroke-width:1.24572"
         d="m 101.73346,35.300231 2.35563,6.935477 2.2822,-6.935477 h -1.06462 v -1.273309 h 3.51815 v 1.273309 h -1.10133 l -3.04702,9.041857 h -1.27877 l -3.09597,-9.041857 h -1.138048 v -1.273309 h 3.634398 v 1.273309 z" />
      <path
         id="path2049"
         style="font-style:normal;font-variant:normal;font-weight:normal;font-stretch:normal;font-size:10.5833px;line-height:0.9;font-family:Rockwell;-inkscape-font-specification:Rockwell;white-space:pre;fill:#ffffff;stroke-width:1.24572"
         d="m 115.8244,37.007008 v -1.706777 h -3.94644 v 3.041045 l 1.44002,-2e-5 v -0.63502 l 0.98722,-1.6e-5 -1.1e-4,2.543447 h -0.98711 v -0.635081 h -1.44002 v 3.345825 h 3.94644 v -1.862554 h 1.13804 v 3.135865 h -7.6665 v -1.273311 h 1.187 v -7.66018 h -1.187 v -1.273309 l 7.6665,1e-5 v 2.980076 z"
         sodipodi:nodetypes="ccccccccccccccccccccccccc" />
      <path
         id="path2051"
         style="font-style:normal;font-variant:normal;font-weight:normal;font-stretch:normal;font-size:10.5833px;line-height:0.9;font-family:Rockwell;-inkscape-font-specification:Rockwell;white-space:pre;fill:#ffffff;stroke-width:1.24572"
         d="m 12.494886,46.672416 h 3.193866 v 1.27331 h -1.11357 v 7.660181 h 1.11357 v 1.27331 h -3.469199 v -1.27331 h 1.089097 v -7.660181 l -3.169393,9.041858 H 9.8639244 L 6.7190068,47.945726 v 7.660181 h 1.0156738 v 1.27331 H 4.4612731 v -1.27331 h 1.119689 v -7.660181 h -1.119689 v -1.27331 h 3.1632733 l 2.4290516,6.989661 z" />
      <path
         id="path2053"
         style="font-style:normal;font-variant:normal;font-weight:normal;font-stretch:normal;font-size:10.5833px;line-height:0.9;font-family:Rockwell;-inkscape-font-specification:Rockwell;white-space:pre;fill:#ffffff;stroke-width:1.24572"
         d="m 25.382396,51.745339 q 0,1.557773 -0.624088,2.770126 -0.61797,1.212354 -1.713185,1.876102 -1.095214,0.656974 -2.490236,0.656974 -1.376666,0 -2.447407,-0.684067 -1.070741,-0.690838 -1.670355,-1.903192 -0.593497,-1.219127 -0.593497,-2.743036 0,-1.510361 0.605734,-2.695624 0.611852,-1.185262 1.682592,-1.849009 1.07074,-0.670519 2.43517,-0.670519 1.419496,0 2.514711,0.690838 1.095214,0.684065 1.694828,1.8761 0.605733,1.192036 0.605733,2.675307 z m -4.772443,3.941843 q 0.948371,0 1.69483,-0.548607 0.746459,-0.548607 1.150281,-1.45618 0.409941,-0.907572 0.409941,-1.937056 0,-1.049804 -0.434416,-1.94383 -0.428295,-0.900799 -1.186991,-1.415542 -0.758697,-0.521515 -1.713186,-0.521515 -0.936133,0 -1.658118,0.507969 -0.721984,0.501196 -1.119688,1.38845 -0.391585,0.887253 -0.391585,1.970922 0,1.151397 0.391585,2.052196 0.397704,0.9008 1.138044,1.401996 0.740341,0.501197 1.719303,0.501197 z" />
      <path
         id="path2055"
         style="font-style:normal;font-variant:normal;font-weight:normal;font-stretch:normal;font-size:10.5833px;line-height:0.9;font-family:Rockwell;-inkscape-font-specification:Rockwell;white-space:pre;fill:#ffffff;stroke-width:1.24572"
         d="m 33.086292,47.945726 h -1.315481 v -1.27331 h 3.781243 v 1.27331 h -1.352192 v 9.041858 h -1.431733 l -4.423688,-8.723529 v 7.341852 h 1.321599 v 1.27331 h -3.775124 v -1.27331 h 1.315481 v -7.660181 h -1.315481 v -1.27331 h 3.144918 l 4.050458,7.931097 z" />
      <path
         id="path2059"
         style="font-style:normal;font-variant:normal;font-weight:normal;font-stretch:normal;font-size:10.5833px;line-height:0.9;font-family:Rockwell;-inkscape-font-specification:Rockwell;white-space:pre;fill:#ffffff;stroke-width:4.70823"
         d="m 192.81055,82.033203 -1.50782,4.660156 -9.38867,29.105471 h -4.20898 v 4.8125 h 13.82812 v -4.8125 h -4.41601 l 2.70508,-8.75586 h 12.625 l 2.70507,8.75586 h -4.41601 v 4.8125 h 13.82812 v -4.8125 h -4.20898 l -9.38867,-29.105471 -1.50782,-4.660156 z m 3.32422,4.660156 4.94921,15.820311 h -9.89843 z"
         transform="matrix(0.26458334,0,0,0.26458334,-4.5478101,24.967598)"
         sodipodi:nodetypes="ccccccccccccccccccccccc" />
      <path
         id="path2061"
         style="font-style:normal;font-variant:normal;font-weight:normal;font-stretch:normal;font-size:10.5833px;line-height:0.9;font-family:Rockwell;-inkscape-font-specification:Rockwell;white-space:pre;fill:#ffffff;stroke-width:1.24572"
         d="m 55.688813,47.945726 v 7.660181 h 3.028667 v -2.104625 h 1.144162 v 3.377935 h -6.754843 v -1.27331 h 1.186992 v -7.660181 h -1.186992 v -1.27331 h 3.769006 v 1.27331 z"
         sodipodi:nodetypes="ccccccccccccccc" />
      <path
         id="path2063"
         style="font-style:normal;font-variant:normal;font-weight:normal;font-stretch:normal;font-size:10.5833px;line-height:0.9;font-family:Rockwell;-inkscape-font-specification:Rockwell;white-space:pre;fill:#ffffff;stroke-width:1.24572"
         d="m 67.087608,49.307085 q 0,0.717931 -0.28757,1.266537 -0.287571,0.548607 -0.838237,0.839843 0.777053,0.304781 1.186992,0.954982 0.41606,0.643429 0.41606,1.530682 0,1.45618 -0.966726,2.221521 -0.960607,0.758567 -2.881821,0.758567 H 60.52244 v -1.27331 h 1.138043 V 47.945726 H 60.52244 v -1.27331 h 3.242814 q 1.682592,0 2.502473,0.650202 0.819881,0.650201 0.819881,1.984467 z m -1.376666,0.08127 q 0,-0.717931 -0.458889,-1.076896 -0.458889,-0.365738 -1.297126,-0.365738 h -0.911658 v 2.980088 h 0.923896 q 1.743777,0 1.743777,-1.537454 z m 0.440533,4.483677 q 0,-0.846616 -0.544547,-1.259765 -0.538431,-0.419918 -1.676474,-0.419918 h -0.887185 v 3.413555 h 0.550666 q 0.826,0 1.35831,-0.108364 0.532312,-0.11514 0.862712,-0.487651 0.336518,-0.379283 0.336518,-1.137851 z" />
      <path
         id="path2067"
         style="font-style:normal;font-variant:normal;font-weight:normal;font-stretch:normal;font-size:10.5833px;line-height:0.9;font-family:Rockwell;-inkscape-font-specification:Rockwell;white-space:pre;fill:#ffffff;stroke-width:1.24572"
         d="m 85.583888,47.945726 h -1.315481 v -1.27331 h 3.781244 v 1.27331 h -1.352193 v 9.041858 h -1.431732 l -4.423689,-8.723529 v 7.341852 h 1.3216 v 1.27331 h -3.775125 v -1.27331 h 1.315482 v -7.660181 h -1.315482 v -1.27331 h 3.144918 l 4.050458,7.931097 z" />
      <path
         id="path2071"
         style="font-style:normal;font-variant:normal;font-weight:normal;font-stretch:normal;font-size:10.5833px;line-height:0.9;font-family:Rockwell;-inkscape-font-specification:Rockwell;white-space:pre;fill:#ffffff;stroke-width:1.24572"
         d="m 100.16447,47.945726 v 7.660181 h 1.00344 v 1.27331 h -3.395765 v -1.27331 h 0.997314 v -7.660181 h -0.997314 v -1.27331 h 3.395765 v 1.27331 z" />
      <path
         id="path2073"
         style="font-style:normal;font-variant:normal;font-weight:normal;font-stretch:normal;font-size:10.5833px;line-height:0.9;font-family:Rockwell;-inkscape-font-specification:Rockwell;white-space:pre;fill:#ffffff;stroke-width:1.24572"
         d="M 107.30776,47.309071 V 46.61146 h 1.1258 v 3.095227 h -1.1258 v -0.704384 q -0.71587,-1.192034 -1.95793,-1.192034 -0.75869,0 -1.16252,0.338645 -0.40382,0.338646 -0.40382,0.975302 0,0.609564 0.37935,0.927891 0.38547,0.318328 1.17475,0.541834 l 1.08298,0.318328 q 1.03403,0.304781 1.5847,0.805977 0.55678,0.501198 0.72198,1.063351 0.17132,0.562153 0.17132,1.252991 0,1.38845 -0.78317,2.2012 -0.78317,0.812753 -2.09865,0.812753 -1.2543,0 -2.28221,-1.015939 v 0.846615 h -1.15028 V 53.16088 h 1.15028 v 0.900799 q 0.826,1.679687 2.15372,1.679687 0.77705,0 1.20535,-0.440241 0.4283,-0.447014 0.4283,-1.252991 0,-1.097215 -1.39503,-1.523909 L 104.9766,52.16526 q -1.24206,-0.39283 -1.83555,-1.06335 -0.5935,-0.67052 -0.5935,-1.767733 0,-1.347813 0.71587,-2.086061 0.72198,-0.745022 1.98852,-0.745022 1.10133,0 2.05582,0.805977 z" />
      <path
         sodipodi:nodetypes="ccccccccccccccccccccccccc"
         d="m 115.89859,49.652502 v -1.706777 h -3.94644 v 3.041045 l 1.44002,-2e-5 v -0.63502 l 0.98722,-1.6e-5 -1.1e-4,2.543447 h -0.98711 V 52.26008 h -1.44002 v 3.345825 h 3.94644 v -1.862554 h 1.13804 v 3.135865 h -7.6665 v -1.273311 h 1.187 v -7.66018 h -1.187 v -1.273309 l 7.6665,1e-5 v 2.980076 z"
         style="font-style:normal;font-variant:normal;font-weight:normal;font-stretch:normal;font-size:10.5833px;line-height:0.9;font-family:Rockwell;-inkscape-font-specification:Rockwell;white-space:pre;fill:#ffffff;stroke-width:1.24572"
         id="path2104" />
      <path
         d="m 35.919848,46.67251 v 2.146123 h 1.137915 v -0.872815 h 1.890842 v 7.659998 h -1.174607 v 1.273307 h 3.768762 v -1.273307 h -1.198893 v -7.659998 h 1.902727 v 0.872815 h 1.137915 V 46.67251 Z"
         style="font-style:normal;font-variant:normal;font-weight:normal;font-stretch:normal;font-size:10.5833px;line-height:0.9;font-family:Rockwell;-inkscape-font-specification:Rockwell;white-space:pre;fill:#ffffff;stroke-width:1.24572"
         id="path2125" />
      <path
         sodipodi:nodetypes="ccccccccccccccccccccccc"
         d="m 72.176689,46.672217 -0.398944,1.232999 -2.484086,7.700823 h -1.113626 v 1.273308 h 3.658691 v -1.273308 h -1.168403 l 0.715719,-2.316654 h 3.340365 l 0.715716,2.316654 h -1.168403 v 1.273308 h 3.658691 v -1.273308 h -1.113626 l -2.484086,-7.700823 -0.398944,-1.232999 z m 0.879533,1.232999 1.309479,4.185791 h -2.61896 z"
         style="font-style:normal;font-variant:normal;font-weight:normal;font-stretch:normal;font-size:10.5833px;line-height:0.9;font-family:Rockwell;-inkscape-font-specification:Rockwell;white-space:pre;fill:#ffffff;stroke-width:1.24572"
         id="path2157" />
      <path
         id="path2159"
         style="font-style:normal;font-variant:normal;font-weight:normal;font-stretch:normal;font-size:10.5833px;line-height:0.9;font-family:Rockwell;-inkscape-font-specification:Rockwell;white-space:pre;fill:#ffffff;stroke-width:1.24572"
         d="m 91.264793,46.672217 -0.398944,1.232999 -2.484086,7.700823 h -1.113626 v 1.273308 h 3.658691 v -1.273308 h -1.168403 l 0.715719,-2.316654 h 3.340365 l 0.715716,2.316654 h -1.168403 v 1.273308 h 3.658691 v -1.273308 h -1.113626 l -2.484086,-7.700823 -0.398944,-1.232999 z m 0.879533,1.232999 1.309479,4.185791 h -2.61896 z"
         sodipodi:nodetypes="ccccccccccccccccccccccc" />
    </g>
  </g>
</svg>
