<?xml version="1.0" encoding="UTF-8" standalone="no"?>
<!-- Generator: Adobe Illustrator 15.1.0, SVG Export Plug-In  -->

<svg
   xmlns:dc="http://purl.org/dc/elements/1.1/"
   xmlns:cc="http://creativecommons.org/ns#"
   xmlns:rdf="http://www.w3.org/1999/02/22-rdf-syntax-ns#"
   xmlns:svg="http://www.w3.org/2000/svg"
   xmlns="http://www.w3.org/2000/svg"
   xmlns:sodipodi="http://sodipodi.sourceforge.net/DTD/sodipodi-0.dtd"
   xmlns:inkscape="http://www.inkscape.org/namespaces/inkscape"
   version="1.1"
   x="0px"
   y="0px"
   width="700"
   height="1000"
   viewBox="-150.204 0 700 1000"
   overflow="visible"
   enable-background="new -150.204 0 1000 1000"
   xml:space="preserve"
   id="svg2"
   inkscape:version="0.91 r13725"
   sodipodi:docname="Logo_Montpellier_HeÌrault_rugby_2013.svg"
   style="overflow:visible"><metadata
     id="metadata104"><rdf:RDF><cc:Work
         rdf:about=""><dc:format>image/svg+xml</dc:format><dc:type
           rdf:resource="http://purl.org/dc/dcmitype/StillImage" /><dc:title></dc:title></cc:Work></rdf:RDF></metadata><sodipodi:namedview
     pagecolor="#ffffff"
     bordercolor="#666666"
     borderopacity="1"
     objecttolerance="10"
     gridtolerance="10"
     guidetolerance="10"
     inkscape:pageopacity="0"
     inkscape:pageshadow="2"
     inkscape:window-width="1440"
     inkscape:window-height="788"
     id="namedview102"
     showgrid="false"
     inkscape:zoom="0.79136297"
     inkscape:cx="160.98455"
     inkscape:cy="506.13222"
     inkscape:window-x="0"
     inkscape:window-y="1"
     inkscape:window-maximized="1"
     inkscape:current-layer="svg2" /><defs
     id="defs4" /><path
     d="m 549.38801,49.385 -11.425,-4.077 C 453.52401,15.245 365.76601,0 277.11301,0 c -25.896,0 -51.745,1.304 -77.515,3.835 -115.869005,11.397 -230.246005,48.295 -340.994,110.197 l -8.692,4.869 -0.116,0.064 0,365.069 c 0,296.675 312.148,492.871 325.446,501.094 l 24.093,14.872 0.264,-0.162 0.253,0.162 24.104,-14.872 c 13.287,-8.223 325.434,-204.419 325.434,-501.094 l 0,-434.649 z"
     id="path6"
     inkscape:connector-curvature="0"
     style="fill:#ffffff" /><path
     d="m 104.65201,333.444 c 147.242,-69.131 237.39,-40.389 272.632,-6.575 -8.749,-19.114 -24.459,-30.443 -24.459,-30.443 0,0 46.771,6.438 74.85,21.182 -19.625,-15.681 -13.354,-12.718 -17.949,-18.965 -7.349,-10.008 -16.961,-17.357 -22.921,-20.831 9.945,0.758 38.378,1.975 77.87,27.112 -27.503,-26.843 -90.743,-48.34 -128.512,-47.209 -136.335,4.089 -231.511,75.729 -231.511,75.729 z"
     id="path8"
     inkscape:connector-curvature="0"
     style="fill:#0090d7" /><path
     d="m 200.74701,293.378 c -3.697,0.93 -7.396,1.923 -11.048,3.048 0,0 4.09,-1.154 11.048,-3.048 z"
     id="path10"
     inkscape:connector-curvature="0"
     style="fill:#0090d7" /><path
     d="m 463.82501,485.39 c -7.579,40.749 -31.281,76.062 -31.281,76.062 0,0 17.168,-10.404 31.281,-24.38 0,0 -22.45,45.292 -34.783,54.364 -12.334,9.071 -87.793,48.609 -95.038,49.333 -7.258,0.723 89.596,-100.113 103.742,-123.333 14.147,-23.216 26.079,-32.046 26.079,-32.046 z"
     id="path12"
     inkscape:connector-curvature="0"
     style="fill:#0090d7" /><path
     d="m -82.324995,544.742 c 17.019,-68.195 57.028,-99.666 57.028,-99.666 0,0 9.807,-30.753 14.206,-41.57 -19.224,5.833 -87.931,80.752 -71.234,141.236 z"
     id="path14"
     inkscape:connector-curvature="0"
     style="fill:#0090d7" /><path
     d="m 311.75901,675.461 c 0.918,-0.413 1.813,-0.827 2.722,-1.241 2.904,-1.319 5.811,-2.675 8.67,-4.054 0.481,-0.228 0.977,-0.448 1.458,-0.688 3.262,-1.573 6.489,-3.182 9.703,-4.812 0.84,-0.425 1.666,-0.86 2.493,-1.286 2.629,-1.355 5.236,-2.732 7.832,-4.123 0.689,-0.366 1.377,-0.735 2.066,-1.102 3.112,-1.7 6.189,-3.411 9.245,-5.156 0.711,-0.401 1.423,-0.828 2.124,-1.229 2.502,-1.448 4.995,-2.918 7.452,-4.387 0.747,-0.46 1.493,-0.896 2.24,-1.345 2.984,-1.825 5.948,-3.662 8.877,-5.522 0.493,-0.323 0.975,-0.632 1.458,-0.953 2.526,-1.621 5.007,-3.249 7.464,-4.892 0.747,-0.494 1.482,-0.989 2.218,-1.482 2.87,-1.951 5.729,-3.915 8.531,-5.902 0.115,-0.082 0.218,-0.161 0.321,-0.242 2.723,-1.928 5.386,-3.869 8.027,-5.845 0.678,-0.493 1.332,-0.987 1.998,-1.492 2.596,-1.952 5.168,-3.917 7.705,-5.902 0.128,-0.104 0.264,-0.196 0.379,-0.3 2.699,-2.124 5.353,-4.271 7.97,-6.431 0.551,-0.458 1.104,-0.917 1.643,-1.366 2.319,-1.941 4.616,-3.881 6.867,-5.845 0.299,-0.253 0.597,-0.505 0.896,-0.771 2.55,-2.227 5.053,-4.479 7.521,-6.74 0.39,-0.355 0.781,-0.724 1.171,-1.08 2.184,-2.021 4.341,-4.064 6.465,-6.109 0.334,-0.32 0.668,-0.642 1.001,-0.964 2.423,-2.354 4.789,-4.708 7.119,-7.086 0.172,-0.172 0.333,-0.354 0.493,-0.527 2.172,-2.217 4.296,-4.456 6.374,-6.706 0.321,-0.321 0.632,-0.654 0.93,-0.999 4.492,-4.858 8.773,-9.763 12.885,-14.733 0.254,-0.3 0.506,-0.608 0.759,-0.908 4.121,-5.019 8.061,-10.095 11.794,-15.205 0.172,-0.229 0.344,-0.457 0.505,-0.688 3.79,-5.203 7.36,-10.439 10.726,-15.71 0.068,-0.104 0.138,-0.206 0.207,-0.321 5.144,-8.073 9.772,-16.221 13.906,-24.408 0.012,-0.041 0.034,-0.075 0.045,-0.11 2.757,-5.466 5.272,-10.961 7.545,-16.456 0.024,-0.058 0.058,-0.121 0.081,-0.184 2.263,-5.495 4.306,-10.996 6.087,-16.49 0.021,-0.051 0.034,-0.098 0.046,-0.144 1.791,-5.524 3.331,-11.042 4.616,-16.548 6.2,-26.533 6.465,-52.744 0,-77.486 l 0,-0.006 c -0.861,-3.312 -1.838,-6.603 -2.952,-9.859 -0.068,-0.224 -0.16,-0.442 -0.241,-0.666 -0.482,-1.401 -0.964,-2.802 -1.492,-4.191 -0.633,-1.648 -1.286,-3.29 -1.987,-4.921 -6.499,-15.307 -15.515,-29.059 -26.675,-41.214 12.964,9.904 24.173,21.165 33.348,33.681 l 0,-272.098 c -216.054,-76.952 -449.114005,-53.233 -665.179,67.534 l 0,342.855 c 0,0.219 0.023,0.437 0.023,0.655 l -0.023,0 c 0,287.286 304.327,478.454 317.27,486.447 l 15.066,9.301 15.066,-9.301 c 12.231,-7.546 284.346,-178.536 314.514,-439.559 -41.697,68.327 -122.484,130.534 -225.263,165.122 -60.047,20.212 -119.808,28.365 -173.989,25.85 54.272,-1.643 113.297,-14.389 171.68,-39.181 3.435,-1.47 6.833,-2.963 10.199,-4.479 z m 172.324,-353.093 c 9.761,10.628 17.466,22.542 22.944,35.421 19.785,46.566 9.577,103.295 -28.756,159.725 -29.364,43.259 -72.37,82.132 -124.183,113.034 16.996,-12.586 33.004,-26.527 47.529,-41.962 22.611,-24.001 41.847,-51.596 54.571,-82.01 12.724,-30.3 18.764,-63.413 15.525,-95.142 -2.849,15.658 -7.143,30.748 -12.701,45.13 -5.627,14.378 -12.527,28.049 -20.59,40.899 -16.065,25.746 -36.346,48.369 -59.016,68.155 -22.702,19.763 -47.668,36.907 -74.067,51.48 -13.206,7.293 -26.699,14.08 -40.549,20.073 -13.781,6.133 -27.86,11.611 -42.168,16.377 -14.252,4.926 -28.768,9.036 -43.408,12.516 -14.619,3.572 -29.421,6.214 -44.27,8.246 -29.673,3.928 -59.750005,4.685 -88.952005,0.437 -29.099,-4.249 -57.498,-13.814 -80.982,-31.592 -11.736,-8.819 -32.901,-23.243 -44.028,-57.131 -11.128,-33.888 1.354,-92.282 34.83,-141.57 9.611,-14.159 20.728,-27.847 33.096,-40.95 -3.974,7.373 -7.672,14.894 -10.979,22.582 -11.851,27.544 -19.121,57.241 -19.637,87.143 -0.276,14.93 1.286,29.881 4.95,44.201 3.651,14.31 9.542,27.963 17.615,39.85 -9.026,-27.332 -9.359,-55.582 -4.387,-82.305 4.984,-26.796 15.1580002,-52.232 28.2840002,-75.733 C 31.350005,392.354 70.222005,352.896 115.97301,326.57 c 5.719,-3.301 11.541,-6.402 17.478,-9.244 2.975,-1.417 5.96,-2.796 8.98,-4.093 l 9.325,-3.871 c 5.982,-2.435 12.437,-4.835 18.729,-6.959 6.362,-2.113 12.77,-4.111 19.211,-5.978 25.851,-7.206 52.469,-11.995 79.434,-13.551 26.929,-1.665 54.202,-0.396 81.017,4.818 26.803,5.248 53.146,14.44 77.525,29.915 -8.843,-11.42 -19.81,-21.486 -31.981,-29.869 -12.173,-8.4 -25.437,-15.394 -39.297,-20.895 -1.803,-0.724 -3.642,-1.361 -5.466,-2.039 56.812,5.859 104.262,26.088 133.155,57.564 z m -597.724,62.609 c 0,0 78.754995,-55.151 196.312995,-86.271 -84.5879998,46.652 -162.218,109.571 -196.312995,183.543 l 0,-97.272 z"
     id="path16"
     inkscape:connector-curvature="0"
     style="fill:#002d59" /><path
     d="m -132.77099,126.279 0,19.689 C 83.292005,25.201 316.35301,1.487 532.40501,78.438 l 0,-19.693 c -216.052,-76.947 -449.113005,-53.233 -665.176,67.534 z"
     id="path18"
     inkscape:connector-curvature="0"
     style="fill:#0090d7" /><path
     d="m 279.50101,376.594 c 0,-19.098 -1.365,-39.009 -23.081,-47.238 -40.675,-13.688 -95.98,-9.221 -131.407,20.435 -10.91,10.8 -15.905,32.907 -5.099,41.089 -74.988005,-29.421 -85.473005,172.984 -24.862005,129.92 -8.314,40.628 24.001005,82.326 53.583005,94.683 22.118,9.221 60.094,14.067 73.839,-21.073 21.107,15.101 50.896,26.906 91.284,-8.349 21.417,-18.74 36.093,-72.416 15.813,-86.977 55.729,-36.214 0.148,-172.708 -50.07,-122.49 z m -53.662,120.91 c -21.521,18.173 -48.668,21.55 -60.577,7.47 -11.932,-14.084 -4.1,-40.209 17.456,-58.371 21.577,-18.155 48.69,-21.526 60.61,-7.453 11.931,14.045 4.122,40.17 -17.489,58.354 z"
     id="path20"
     inkscape:connector-curvature="0"
     style="fill:#002d59" /><path
     d="m 513.28501,221.123 c -200.147,-58.549 -425.687005,-32.079 -626.925,80.805 0,-46.439 0,-92.88 0,-139.32 200.709995,-108.164 426.215,-130.678 626.925,-67.536 0,42.02 0,84.037 0,126.051 z"
     id="path22"
     inkscape:connector-curvature="0"
     style="fill:#0090d7" /><path
     d="m 114.27501,884.21 c 0,0 35.048,6.247 85.323,6.247 50.275,0 85.852,-6.247 85.852,-6.247 0,0 -52.606,45.073 -85.852,61.013 22.875,-21.464 31.568,-38.918 31.568,-38.918 0,0 -10.887,11.69 -17.592,15.066 -50.528,-11.242 -81.109,-27.147 -99.299,-37.161 z"
     id="path78"
     inkscape:connector-curvature="0"
     style="fill:#0090d7" /><path
     d="m 350.57301,817.042 c 46.245,-32.521 126.206,-150.298 143.593,-222.977 -31.581,46.451 -91.756,90.73 -132.166,112.758 16.02,-3.021 44.845,-12.575 64.4,-20.866 -7.659,37.953 -44.626,94.269 -75.827,131.085 z"
     id="path80"
     inkscape:connector-curvature="0"
     style="fill:#0090d7" /><path
     d="m 53.400005,315.708 c 9.623,-5.88 19.396,-11.559 29.272,-17.007 -117.558,31.125 -196.312995,86.276 -196.312995,86.276 l 0,97.277 c 2.493,-5.409 5.237,-10.754 8.188,-16.037 l 0,-75.338 c 0,0 62.344995,-43.621 158.852995,-75.171 z"
     id="path82"
     inkscape:connector-curvature="0"
     style="fill:#0090d7" /><path
     d="m -92.739995,601.747 c 7.269,26.825 19.269,54.26 41.398,77.802 11.208,11.908 25.138,22.601 40.951,31.041 16.1110002,8.635 34.071,14.997 52.572,19.291 -28.445,-9.428 -54.26,-23.989 -72.393,-42.189 24.9650002,13.791 54.11,19.855 82.9,20.279 29.995,0.505 60.071005,-4.294 89.917005,-11.645 -30.742,4.893 -61.185005,7.109 -90.089005,4.283 -27.882,-2.652 -54.2829998,-10.655 -75.332,-24.632 9.427,0.873 18.5800002,0.551 27.2500002,-0.712 -19.8090002,-3.561 -38.9520002,-12.242 -55.5920002,-25.494 -16.376,-12.929 -30.19,-29.811 -41.582,-48.024 z"
     id="path84"
     inkscape:connector-curvature="0"
     style="fill:#0090d7" /><path
     d="m 182.71801,453.5 c 21.589,-18.15 48.701,-21.521 60.61,-7.453 3.111,3.669 4.856,8.159 5.386,13.114 0.804,-7.676 -0.885,-14.71 -5.386,-20.016 -11.909,-14.068 -39.021,-10.697 -60.61,7.453 -15.928,13.43 -24.334,31.195 -22.83,45.246 1.321,-12.65 9.417,-27.039 22.83,-38.344 z"
     id="path86"
     inkscape:connector-curvature="0"
     style="fill:#0090d7" /><g
     id="g4369"><g
       id="g4356"><path
         d="m -66.499995,224.171 c -4.226,-19.354 -8.452,-38.716 -12.666,-58.084 -1.263,0.615 -2.526,1.229 -3.778,1.85 -3.755,1.849 -7.487,3.726 -11.208,5.632 0,36.529 0,73.053 0,109.588 4.502,-2.382 9.038,-4.726 13.562,-7.022 -0.459,-23.622 -0.93,-47.249 -1.401,-70.883 3.388,15.573 6.81,31.139 10.221,46.704 3.502,-1.717 7.028,-3.405 10.542,-5.076 3.422,-18.828 6.855,-37.609 10.289,-56.333 -0.47,23.96 -0.953,47.927 -1.424,71.899 4.583,-2.119 9.164,-4.197 13.769,-6.229 0,-36.214 0,-72.434 0,-108.641 -5.087,2.165 -10.152,4.375 -15.193,6.638 -4.25,23.242 -8.487,46.56 -12.713,69.957 z"
         id="path24"
         inkscape:connector-curvature="0"
         style="fill:#002d59" /><path
         d="m 10.911005,128.254 c -4.4669998,1.585 -8.9349998,3.21 -13.3899998,4.869 -11.1270002,4.186 -16.6630002,12.621 -16.6630002,24.988 0,23.783 0,47.565 0,71.348 0,12.293 5.592,16.042 16.8240002,11.644 4.34,-1.705 8.704,-3.37 13.0679998,-4.995 11.253,-4.175 16.938,-12.172 16.927,-24.374 0,-23.605 0,-47.209 0,-70.819 0.012,-12.27 -5.615,-16.605 -16.766,-12.661 z m 2.768,87.414 c -0.011,4.208 -1.837,6.977 -5.5469998,8.354 -2.377,0.89 -4.754,1.786 -7.108,2.699 -4.181,1.602 -6.259,0.321 -6.259,-3.904 0,-23.071 0,-46.142 0,-69.218 0,-4.214 2.033,-7.12 6.10900005,-8.625 2.16999995,-0.815 4.35199995,-1.613 6.52199995,-2.405 4.1799998,-1.504 6.2819998,-0.126 6.2819998,4.088 10e-4,23.002 10e-4,46.009 10e-4,69.011 z"
         id="path26"
         inkscape:connector-curvature="0"
         style="fill:#002d59" /><path
         d="m 76.713005,159.393 c -5.064,-15.802 -10.118,-31.592 -15.17,-47.37 -4.708,1.35 -9.405,2.738 -14.102,4.174 0,35.731 0,71.468 0,107.2 4.696,-1.521 9.394,-2.986 14.102,-4.416 0,-23.34 0,-46.675 0,-70.01 5.052,14.762 10.105,29.536 15.17,44.315 0,7.085 0,14.165 0,21.25 4.696,-1.337 9.428,-2.624 14.147,-3.87 0,-35.496 0,-70.986 0,-106.477 -4.72,1.166 -9.439,2.378 -14.147,3.629 0,17.198 0,34.384 0,51.575 z"
         id="path28"
         inkscape:connector-curvature="0"
         style="fill:#002d59" /><path
         d="m 106.38601,113.373 c 4.536,-1.041 9.083,-2.051 13.62,-3.009 0,31.051 0,62.103 0,93.155 4.753,-1.079 9.485,-2.107 14.228,-3.101 0,-30.983 0,-61.966 0,-92.948 4.559,-0.879 9.106,-1.723 13.665,-2.527 0,-4.26 0,-8.521 0,-12.781 -13.861,2.411 -27.698,5.196 -41.513,8.342 0,4.29 0,8.579 0,12.869 z"
         id="path30"
         inkscape:connector-curvature="0"
         style="fill:#002d59" /><path
         d="m 189.50501,86 c -8.683,1.057 -17.353,2.257 -26.023,3.594 0,15.423 0,30.839 0,46.262 -4.307,4.95 -8.624,9.939 -12.919,14.975 4.295,-0.775 8.612,-1.51 12.919,-2.216 0,15.422 0,30.845 0,46.267 4.766,-5.506 9.52,-10.961 14.286,-16.364 0,-10.708 0,-21.411 0,-32.119 3.961,-0.574 7.923,-1.125 11.884,-1.643 11.394,-1.487 17.1,-7.952 17.1,-19.814 0,-7.643 0,-15.291 0,-22.933 10e-4,-11.938 -5.753,-17.392 -17.247,-16.009 z m 2.974,39.574 c 0,4.082 -1.895,6.362 -5.64,6.85 -3.031,0.396 -6.051,0.821 -9.071,1.251 0,-11.145 0,-22.284 0,-33.429 2.755,-0.384 5.534,-0.758 8.302,-1.113 4.271,-0.546 6.408,1.263 6.408,5.352 10e-4,7.033 10e-4,14.055 10e-4,21.089 z"
         id="path32"
         inkscape:connector-curvature="0"
         style="fill:#002d59" /><path
         d="m 260.81801,93.075 c 0,-4.191 0,-8.378 0,-12.564 -11.759,0.374 -23.554,1.022 -35.359,1.924 0,15.268 0,30.541 0,45.809 -4.294,4.576 -8.601,9.187 -12.918,13.849 4.317,-0.437 8.624,-0.85 12.918,-1.218 0,15.279 0,30.553 0,45.826 11.806,-1.097 23.601,-1.929 35.359,-2.498 0,-4.191 0,-8.383 0,-12.569 -7.018,0.328 -14.033,0.747 -21.073,1.264 0,-11.036 0,-22.072 0,-33.107 6.235,-0.431 12.473,-0.781 18.696,-1.057 0,-4.186 0,-8.377 0,-12.563 -6.224,0.271 -12.461,0.604 -18.696,1.011 0,-11.029 0,-22.071 0,-33.101 7.04,-0.432 14.055,-0.765 21.073,-1.006 z"
         id="path34"
         inkscape:connector-curvature="0"
         style="fill:#002d59" /><path
         d="m 292.67301,80.133 c -4.743,-0.041 -9.475,-0.041 -14.217,0.006 0,34.468 0,68.936 0,103.398 11.265,-0.293 22.519,-0.345 33.728,-0.161 0,-4.152 0,-8.309 0,-12.46 -6.489,-0.121 -13,-0.167 -19.511,-0.126 0,-30.219 0,-60.432 0,-90.657 z"
         id="path36"
         inkscape:connector-curvature="0"
         style="fill:#002d59" /><path
         d="m 341.79901,82.074 c -4.708,-0.333 -9.427,-0.632 -14.135,-0.885 0,34.199 0,68.402 0,102.589 11.196,0.414 22.358,1.062 33.497,1.953 0,-4.123 0,-8.246 0,-12.368 -6.441,-0.523 -12.907,-0.977 -19.362,-1.343 0,-29.979 0,-59.963 0,-89.946 z"
         id="path38"
         inkscape:connector-curvature="0"
         style="fill:#002d59" /><path
         d="m 376.50401,187.108 c 4.674,0.471 9.336,0.982 13.987,1.533 0,-33.854 0,-67.702 0,-101.549 -4.651,-0.625 -9.313,-1.212 -13.987,-1.757 0,33.922 0,67.851 0,101.773 z"
         id="path40"
         inkscape:connector-curvature="0"
         style="fill:#002d59" /><path
         d="m 445.15201,108.727 c 0,-4.06 0,-8.125 0,-12.19 -11.379,-2.399 -22.829,-4.53 -34.313,-6.402 0,14.82 0,29.64 0,44.459 -4.202,3.434 -8.404,6.919 -12.619,10.438 4.215,0.574 8.417,1.183 12.619,1.82 0,14.831 0,29.65 0,44.481 11.484,1.683 22.935,3.624 34.313,5.828 0,-4.059 0,-8.13 0,-12.195 -6.798,-1.327 -13.607,-2.567 -20.439,-3.709 0,-10.708 0,-21.422 0,-32.125 6.051,1.044 12.103,2.165 18.144,3.353 0,-4.059 0,-8.13 0,-12.189 -6.041,-1.206 -12.093,-2.343 -18.144,-3.405 0,-10.708 0,-21.423 0,-32.137 6.832,1.234 13.641,2.555 20.439,3.973 z"
         id="path42"
         inkscape:connector-curvature="0"
         style="fill:#002d59" /><path
         d="m 496.35901,163.877 c 5.351,-0.827 8.026,-5.541 8.026,-14.234 0,-7.004 0,-14.01 0,-21.014 0,-11.369 -5.146,-18.638 -15.514,-21.498 -8.854,-2.435 -17.766,-4.691 -26.7,-6.799 0,14.694 0,29.387 0,44.08 -4.146,3.113 -8.291,6.259 -12.437,9.457 4.146,0.867 8.291,1.769 12.437,2.705 0,14.699 0,29.392 0,44.085 4.559,0.999 9.118,2.038 13.654,3.112 0,-14.658 0,-29.324 0,-43.988 2.756,0.672 5.5,1.366 8.245,2.073 2.962,15.411 5.948,30.81 8.9,46.209 4.294,1.125 8.555,2.292 12.815,3.497 -3.133,-15.893 -6.28,-31.786 -9.426,-47.685 z m -5.502,-19.574 c -0.011,4.817 -2.031,6.684 -6.085,5.633 -2.975,-0.78 -5.95,-1.533 -8.946,-2.273 0,-10.628 0,-21.239 0,-31.867 2.996,0.758 5.972,1.539 8.946,2.326 4.054,1.085 6.074,4.059 6.085,8.888 0,5.763 0,11.528 0,17.293 z"
         id="path44"
         inkscape:connector-curvature="0"
         style="fill:#002d59" /></g><g
       id="g4327"><path
         d="m -72.562995,220.618 c -4.226,-19.338 -8.441,-38.688 -12.644,-58.05 -4.996,2.48 -9.979,5.007 -14.950995,7.597 0,36.558 0,73.122 0,109.691 4.500995,-2.423 9.013995,-4.794 13.550995,-7.131 -0.471,-23.639 -0.942,-47.284 -1.413,-70.934 3.388,15.56 6.798,31.121 10.209,46.674 3.491,-1.746 6.994,-3.462 10.496,-5.145 3.434,-18.878 6.856,-37.701 10.278,-56.465 -0.459,23.984 -0.942,47.979 -1.413,71.974 4.571,-2.153 9.153,-4.266 13.735,-6.333 0,-36.249 0,-72.49 0,-108.738 -5.053,2.199 -10.118,4.449 -15.159,6.758 -4.248,23.283 -8.463,46.652 -12.689,70.102 z"
         id="path46"
         inkscape:connector-curvature="0"
         style="fill:#ffffff" /><path
         d="m 4.7110052,124.086 c -4.46799995,1.62 -8.923,3.273 -13.368,4.967 -11.1160002,4.266 -16.6400002,12.746 -16.6400002,25.12 0,23.806 0,47.612 0,71.417 0.011,12.311 5.581,16.031 16.8000002,11.535 4.341,-1.729 8.69300005,-3.422 13.057,-5.07 11.2419998,-4.272 16.9039998,-12.316 16.8929998,-24.523 0,-23.633 0,-47.261 0,-70.894 0,-12.282 -5.604,-16.582 -16.7419998,-12.552 z m 2.755,87.476 c 0,4.204 -1.837,6.994 -5.524,8.406 -2.36599995,0.901 -4.743,1.82 -7.12,2.75 -4.157,1.62 -6.2240002,0.356 -6.2240002,-3.875 0,-23.094 0,-46.187 0,-69.281 0,-4.221 2.0090002,-7.131 6.0860002,-8.676 2.182,-0.821 4.35200005,-1.643 6.535,-2.446 4.167,-1.545 6.247,-0.178 6.247,4.036 0,23.031 0,46.056 0,69.086 z"
         id="path48"
         inkscape:connector-curvature="0"
         style="fill:#ffffff" /><path
         d="m 70.431005,154.811 c -5.053,-15.785 -10.094,-31.558 -15.147,-47.324 -4.708,1.384 -9.394,2.813 -14.09,4.278 0,35.766 0,71.531 0,107.296 4.697,-1.544 9.394,-3.048 14.09,-4.512 0,-23.353 0,-46.71 0,-70.068 5.053,14.739 10.094,29.496 15.147,44.258 0,7.085 0,14.177 0,21.267 4.708,-1.366 9.428,-2.693 14.148,-3.973 0,-35.531 0,-71.055 0,-106.585 -4.72,1.2 -9.428,2.452 -14.148,3.744 0,17.208 0,34.411 0,51.619 z"
         id="path50"
         inkscape:connector-curvature="0"
         style="fill:#ffffff" /><path
         d="m 100.09301,108.538 c 4.525,-1.08 9.061,-2.113 13.608,-3.106 0,31.08 0,62.167 0,93.247 4.731,-1.107 9.485,-2.176 14.229,-3.198 0,-31.012 0,-62.029 0,-93.04 4.559,-0.919 9.095,-1.78 13.642,-2.618 0,-4.267 0,-8.539 0,-12.805 -13.849,2.521 -27.687,5.403 -41.479,8.647 0,4.283 0,8.584 0,12.873 z"
         id="path52"
         inkscape:connector-curvature="0"
         style="fill:#ffffff" /><path
         d="m 183.17601,80.575 c -8.682,1.113 -17.351,2.372 -26.021,3.778 0,15.434 0,30.868 0,46.302 -4.295,4.978 -8.612,10.008 -12.919,15.072 4.307,-0.798 8.624,-1.573 12.919,-2.308 0,15.44 0,30.879 0,46.325 4.766,-5.546 9.508,-11.042 14.274,-16.479 0,-10.72 0,-21.434 0,-32.148 3.962,-0.604 7.923,-1.177 11.886,-1.729 11.402,-1.567 17.11,-8.084 17.11,-19.952 0,-7.66 0,-15.308 0,-22.961 0,-11.944 -5.764,-17.359 -17.249,-15.9 z m 2.974,39.584 c 0,4.094 -1.894,6.385 -5.648,6.896 -3.032,0.425 -6.052,0.867 -9.073,1.321 0,-11.151 0,-22.308 0,-33.458 2.768,-0.414 5.536,-0.799 8.314,-1.171 4.271,-0.574 6.397,1.217 6.407,5.311 0,7.033 0,14.067 0,21.101 z"
         id="path54"
         inkscape:connector-curvature="0"
         style="fill:#ffffff" /><path
         d="m 254.49001,87.161 c 0,-4.197 0,-8.383 0,-12.581 -11.771,0.459 -23.564,1.189 -35.357,2.17 0,15.285 0,30.576 0,45.854 -4.308,4.61 -8.625,9.256 -12.931,13.952 4.306,-0.47 8.623,-0.901 12.931,-1.297 0,15.284 0,30.575 0,45.866 11.793,-1.177 23.587,-2.09 35.357,-2.745 0,-4.191 0,-8.388 0,-12.58 -7.016,0.373 -14.044,0.844 -21.071,1.407 0,-11.042 0,-22.095 0,-33.142 6.235,-0.472 12.471,-0.862 18.706,-1.183 0,-4.197 0,-8.389 0,-12.581 -6.235,0.304 -12.471,0.695 -18.706,1.143 0,-11.047 0,-22.089 0,-33.136 7.027,-0.475 14.055,-0.855 21.071,-1.147 z"
         id="path56"
         inkscape:connector-curvature="0"
         style="fill:#ffffff" /><path
         d="m 286.36901,73.978 c -4.731,-0.006 -9.474,0.035 -14.217,0.109 0,34.503 0,69.011 0,103.513 11.266,-0.373 22.519,-0.511 33.751,-0.407 0,-4.157 0,-8.32 0,-12.478 -6.512,-0.074 -13.012,-0.068 -19.534,0.023 0,-30.253 0,-60.512 0,-90.76 z"
         id="path58"
         inkscape:connector-curvature="0"
         style="fill:#ffffff" /><path
         d="m 335.53101,75.58 c -4.708,-0.304 -9.43,-0.563 -14.138,-0.781 0,34.232 0,68.459 0,102.692 11.197,0.333 22.394,0.901 33.533,1.711 0,-4.122 0,-8.25 0,-12.379 -6.454,-0.481 -12.909,-0.884 -19.396,-1.206 10e-4,-30.013 10e-4,-60.031 10e-4,-90.037 z"
         id="path60"
         inkscape:connector-curvature="0"
         style="fill:#ffffff" /><path
         d="m 370.29201,180.477 c 4.673,0.437 9.336,0.913 13.999,1.436 0,-33.889 0,-67.771 0,-101.654 -4.663,-0.597 -9.326,-1.154 -13.999,-1.665 0,33.963 0,67.92 0,101.883 z"
         id="path62"
         inkscape:connector-curvature="0"
         style="fill:#ffffff" /><path
         d="m 439.03201,101.509 c 0,-4.071 0,-8.142 0,-12.207 -11.403,-2.314 -22.852,-4.37 -34.37,-6.167 0,14.842 0,29.674 0,44.517 -4.203,3.467 -8.43,6.981 -12.632,10.542 4.202,0.54 8.429,1.12 12.632,1.728 0,14.843 0,29.685 0,44.527 11.519,1.602 22.967,3.462 34.37,5.582 0,-4.066 0,-8.131 0,-12.202 -6.798,-1.281 -13.63,-2.469 -20.476,-3.571 0,-10.72 0,-21.446 0,-32.166 6.075,1.004 12.139,2.078 18.167,3.232 0,-4.071 0,-8.142 0,-12.207 -6.028,-1.166 -12.092,-2.257 -18.167,-3.272 0,-10.72 0,-21.44 0,-32.166 6.846,1.184 13.678,2.458 20.476,3.83 z"
         id="path64"
         inkscape:connector-curvature="0"
         style="fill:#ffffff" /><path
         d="m 490.34101,156.321 c 5.373,-0.856 8.049,-5.615 8.049,-14.309 0,-7.017 0,-14.033 0,-21.055 0.012,-11.363 -5.144,-18.598 -15.536,-21.394 -8.889,-2.36 -17.812,-4.559 -26.78,-6.592 0,14.71 0,29.421 0,44.126 -4.134,3.152 -8.292,6.338 -12.448,9.56 4.156,0.838 8.314,1.706 12.448,2.613 0,14.71 0,29.427 0,44.143 4.581,0.964 9.152,1.964 13.699,3.014 0,-14.681 0,-29.363 0,-44.045 2.756,0.655 5.502,1.327 8.246,2.015 2.996,15.4 5.972,30.793 8.935,46.193 4.294,1.091 8.589,2.228 12.85,3.399 -3.148,-15.882 -6.305,-31.775 -9.463,-47.668 z m -5.511,-19.551 c 0,4.818 -2.011,6.707 -6.087,5.679 -2.998,-0.758 -5.972,-1.487 -8.97,-2.199 0,-10.634 0,-21.262 0,-31.89 2.998,0.735 5.983,1.487 8.97,2.251 4.065,1.05 6.074,4.007 6.087,8.848 0,5.77 0,11.541 0,17.311 z"
         id="path66"
         inkscape:connector-curvature="0"
         style="fill:#ffffff" /></g><g
       id="g4349"><path
         d="m 105.47901,787.655 c 0,-6.579 0,-13.172 0,-19.752 0,-11.679 -5.213,-18.464 -15.560005,-20.878 -8.865,-2.076 -17.685,-4.408 -26.458,-6.992 0,14.585 0,29.168 0,43.741 -3.836,2.768 -7.66,5.479 -11.46,8.13 3.812,1.219 7.637,2.4 11.46,3.526 0,15.526 -0.012,31.062 -0.012,46.588 4.479,1.321 8.981,2.572 13.482,3.767 0,-15.537 0,-31.062 0,-46.588 2.733,0.711 5.455,1.412 8.188,2.09 2.951,16.249 5.914,32.476 8.876,48.679 4.295,0.976 8.589005,1.883 12.884005,2.744 -3.169,-16.593 -6.338,-33.209 -9.497005,-49.86 5.387005,-1.184 8.085005,-6.306 8.097005,-15.195 z m -13.597005,-3.8 c 0,4.926 -2.033,6.923 -6.075,5.948 -2.951,-0.724 -5.914,-1.482 -8.876,-2.263 0.011,-10.462 0.011,-20.924 0.011,-31.385 2.952,0.769 5.915,1.527 8.877,2.25 4.042,0.977 6.063,3.894 6.063,8.819 0,5.549 0,11.085 0,16.631 z"
         id="path68"
         inkscape:connector-curvature="0"
         style="fill:#ffffff" /><path
         d="m 153.32001,840.561 c 0,4.444 -1.85,6.477 -5.547,6.087 -1.872,-0.196 -3.721,-0.414 -5.592,-0.645 -3.997,-0.505 -5.983,-3.007 -5.995,-7.451 0,-27.652 -0.012,-55.307 0,-82.947 -4.56,-0.632 -9.119,-1.31 -13.666,-2.066 0,27.503 0,55.029 0,82.544 0,12.953 5.444,20.429 16.376,21.865 3.87,0.493 7.706,0.953 11.576,1.355 11.059,1.137 16.582,-5.02 16.605,-17.869 -0.011,-27.561 -0.011,-55.121 -0.023,-82.67 -4.57,-0.333 -9.141,-0.714 -13.711,-1.172 0,27.664 -0.012,55.316 -0.023,82.969 z"
         id="path70"
         inkscape:connector-curvature="0"
         style="fill:#ffffff" /><path
         d="m 211.78401,759.762 c -3.147,0.069 -6.283,0.127 -9.452,0.139 -10.611,0.034 -15.916,5.604 -15.904,17.281 0,22.439 -0.012,44.891 -0.012,67.329 -0.012,11.449 5.294,17.409 15.916,17.387 8.98,-0.035 17.96,-0.332 26.93,-0.873 0,-16.582 0,-33.152 0,-49.735 -6.971,0.425 -13.93,0.7 -20.901,0.827 -0.011,4.123 -0.011,8.232 0,12.355 2.377,-0.045 4.755,-0.103 7.154,-0.172 0,8.337 0,16.663 0,25.011 -3.101,0.093 -6.212,0.172 -9.312,0.208 -4.009,0.046 -6.017,-2.436 -6.017,-7.361 -0.013,-20.844 0,-41.662 0,-62.506 -0.013,-4.938 2.008,-7.373 6.028,-7.418 1.136,-0.022 2.285,-0.046 3.434,-0.07 3.903,-0.079 5.867,2.32 5.88,7.248 0,3.031 0,6.063 0,9.083 4.57,-0.149 9.163,-0.357 13.734,-0.632 0,-3.698 0,-7.396 0,-11.093 0.022,-11.84 -5.8,-17.307 -17.478,-17.008 z"
         id="path72"
         inkscape:connector-curvature="0"
         style="fill:#ffffff" /><path
         d="m 279.39801,802.883 c 0,-0.012 0.012,-0.033 0.023,-0.046 6.522,-2.423 9.784,-6.672 9.784,-12.54 0,-6.752 0,-13.505 0,-20.27 0,-12.332 -6.053,-17.236 -18.19,-15.398 -7.798,1.171 -15.605,2.135 -23.415,2.916 0,14.573 0,29.146 0,43.719 -3.916,4.26 -7.82,8.486 -11.737,12.655 3.917,-0.287 7.821,-0.632 11.737,-1.022 0,15.549 0,31.098 0,46.658 9.198,-0.918 18.374,-2.112 27.525,-3.559 10.348,-1.643 15.492,-7.787 15.492,-17.904 0,-8.531 0,-17.055 0,-25.573 0.001,-5.685 -3.708,-8.82 -11.219,-9.636 z m -18.098,-34.543 c 2.71,-0.344 5.431,-0.712 8.13,-1.114 4.089,-0.596 6.132,1.528 6.132,6.466 0,5.523 0,11.036 0,16.56 0,4.914 -2.606,7.831 -7.842,8.577 -2.137,0.312 -4.284,0.599 -6.42,0.862 0,-10.438 0,-20.9 0,-31.351 z m 15.674,70.613 c 0,2.917 -1.79,4.696 -5.408,5.248 -3.41,0.505 -6.844,0.987 -10.266,1.424 0,-11.414 0,-22.817 0,-34.232 2.526,-0.333 5.053,-0.666 7.566,-1.033 5.422,-0.793 8.107,1.16 8.107,5.982 0.001,7.545 0.001,15.078 0.001,22.611 z"
         id="path74"
         inkscape:connector-curvature="0"
         style="fill:#ffffff" /><path
         d="m 334.36001,740.802 c -3.032,15.653 -6.075,31.271 -9.107,46.854 -0.15,0.046 -0.287,0.08 -0.426,0.127 -3.376,-13.873 -6.752,-27.778 -10.15,-41.72 -4.456,1.078 -8.935,2.112 -13.413,3.065 5.569,20.292 11.127,40.503 16.651,60.61 0,12.494 0,25.001 0,37.494 4.501,-1.137 9.026,-2.33 13.505,-3.606 0,-12.493 0,-24.987 0,-37.493 5.408,-23.024 10.84,-46.152 16.226,-69.361 -4.422,1.413 -8.842,2.755 -13.286,4.03 z"
         id="path76"
         inkscape:connector-curvature="0"
         style="fill:#ffffff" /></g><g
       id="g4340"><path
         d="m -39.409995,299.344 c -1.918,0.838 -3.824,1.682 -5.742,2.537 0.012,-5.213 0.012,-10.427 0.012,-15.634 -2.355,1.044 -4.697,2.107 -7.052,3.169 -0.011,12.649 -0.011,25.292 -0.023,37.941 2.343,-1.074 4.697,-2.13 7.052,-3.175 0,-5.57 0,-11.145 0.011,-16.714 1.906,-0.85 3.824,-1.694 5.742,-2.532 -0.012,5.57 -0.012,11.139 -0.012,16.709 2.354,-1.028 4.708,-2.05 7.062,-3.055 0.012,-12.649 0.023,-25.292 0.035,-37.936 -2.366,1.011 -4.72,2.026 -7.074,3.054 0,5.214 -0.011,10.428 -0.011,15.636 z"
         id="path88"
         inkscape:connector-curvature="0"
         style="fill:#ffffff" /><path
         d="m 47.934005,256.217 c 0,-1.861 0,-3.727 0,-5.593 -1.458,0.471 -2.906,0.97 -4.364,1.447 0.827,-1.51 1.654,-3.02 2.47,-4.531 -2.32,0.753 -4.628,1.516 -6.948,2.286 -0.575,1.436 -1.149,2.871 -1.735,4.307 -1.733,0.579 -3.479,1.142 -5.225,1.739 -0.011,12.643 -0.023,25.288 -0.035,37.931 5.272,-1.797 10.531,-3.548 15.813,-5.242 0,-1.866 0,-3.727 0,-5.593 -2.883,0.93 -5.753,1.872 -8.636,2.831 0,-3.709 0.012,-7.418 0.012,-11.122 2.549,-0.85 5.098,-1.688 7.659,-2.514 0,-1.86 0.012,-3.727 0.012,-5.587 -2.561,0.821 -5.122,1.66 -7.671,2.515 0.011,-3.353 0.011,-6.701 0.011,-10.048 2.884,-0.96 5.755,-1.901 8.637,-2.826 z"
         id="path90"
         inkscape:connector-curvature="0"
         style="fill:#ffffff" /><path
         d="m 131.53501,244.096 c 0,-3.026 0,-6.046 0,-9.072 0.011,-5.679 -4.031,-5.994 -7.419,-5.225 -4.077,0.919 -8.142,1.866 -12.207,2.848 -0.012,12.643 -0.023,25.288 -0.035,37.931 2.423,-0.58 4.834,-1.148 7.246,-1.711 0,-4.956 0.012,-9.911 0.012,-14.865 0.781,-0.179 1.562,-0.357 2.331,-0.54 1.286,4.662 2.572,9.324 3.858,13.986 2.32,-0.516 4.651,-1.027 6.971,-1.533 -1.378,-4.892 -2.768,-9.778 -4.158,-14.665 2.252,-1.545 3.401,-3.944 3.401,-7.154 z m -12.391,-7.574 c 1.068,-0.247 2.125,-0.488 3.193,-0.735 0.964,-0.218 1.963,-0.189 1.952,1.66 0,2.647 0,5.294 0,7.947 0,1.849 -0.988,2.319 -1.964,2.543 -1.068,0.242 -2.124,0.483 -3.192,0.735 0.011,-4.054 0.011,-8.102 0.011,-12.15 z"
         id="path92"
         inkscape:connector-curvature="0"
         style="fill:#ffffff" /><path
         d="m 208.47401,215.105 c -1.48,0.184 -2.95,0.368 -4.433,0.557 -5.074,0.655 -7.762,3.411 -7.762,7.901 -0.013,10.353 -0.013,20.711 -0.022,31.063 2.423,-0.333 4.846,-0.66 7.269,-0.97 0,-4.491 0,-8.986 0.011,-13.477 1.804,-0.236 3.606,-0.46 5.409,-0.684 -0.012,4.497 -0.012,8.986 -0.012,13.482 2.424,-0.299 4.847,-0.581 7.27,-0.856 0,-10.352 0.013,-20.705 0.023,-31.063 0,-4.489 -2.677,-6.573 -7.753,-5.953 z m 0.484,7.121 c 0,3.892 -0.012,7.792 -0.012,11.684 -1.803,0.218 -3.605,0.448 -5.409,0.677 0,-3.893 0.012,-7.792 0.012,-11.684 0,-1.126 0.551,-1.66 1.895,-1.832 0.541,-0.063 1.08,-0.133 1.621,-0.201 1.342,-0.166 1.893,0.23 1.893,1.356 z"
         id="path94"
         inkscape:connector-curvature="0"
         style="fill:#ffffff" /><path
         d="m 294.79701,239.52 c 0,1.625 -0.872,1.859 -1.722,1.877 -0.805,0.017 -1.597,0.028 -2.399,0.051 -0.932,0.023 -1.896,-0.172 -1.896,-1.797 0.012,-10.169 0.023,-20.332 0.023,-30.5 -2.411,0.063 -4.822,0.138 -7.234,0.218 -0.012,10.111 -0.023,20.229 -0.023,30.346 -0.012,6.264 4.191,7.441 7.718,7.354 1.652,-0.041 3.319,-0.074 4.972,-0.109 3.549,-0.069 7.774,-1.418 7.786,-7.642 0.012,-10.135 0.012,-20.264 0.022,-30.392 -2.411,0.017 -4.823,0.052 -7.223,0.097 -0.012,10.165 -0.024,20.328 -0.024,30.497 z"
         id="path96"
         inkscape:connector-curvature="0"
         style="fill:#ffffff" /><path
         d="m 374.39101,211.471 c -2.39,-0.189 -4.777,-0.373 -7.166,-0.545 -0.012,12.643 -0.022,25.286 -0.034,37.93 5.064,0.356 10.129,0.77 15.169,1.223 0.012,-1.866 0.012,-3.726 0.012,-5.592 -2.664,-0.236 -5.34,-0.466 -8.004,-0.678 0,-10.783 0.011,-21.561 0.023,-32.338 z"
         id="path98"
         inkscape:connector-curvature="0"
         style="fill:#ffffff" /><path
         d="m 439.53701,219.366 c 0,1.86 0,3.727 -0.012,5.587 1.839,0.298 3.676,0.603 5.513,0.918 0,10.778 -0.012,21.561 -0.022,32.338 2.354,0.402 4.708,0.809 7.062,1.234 0.013,-10.778 0.013,-21.555 0.024,-32.338 1.836,0.327 3.663,0.666 5.488,1.004 0,-1.86 0.012,-3.726 0.012,-5.587 -6.007,-1.118 -12.024,-2.174 -18.065,-3.156 z"
         id="path100"
         inkscape:connector-curvature="0"
         style="fill:#ffffff" /></g></g></svg>